<?xml version="1.0" standalone="no"?>
<!DOCTYPE svg PUBLIC "-//W3C//DTD SVG 1.1//EN" "http://www.w3.org/Graphics/SVG/1.1/DTD/svg11.dtd" >
<svg xmlns="http://www.w3.org/2000/svg">
<metadata>
Created by FontForge 20100429 at Mon Oct  8 14:32:45 2012
 By root
Copyright (C) 2012 by original authors @ fontello.com
</metadata>
<defs>
<font id="fontello" horiz-adv-x="928" >
  <font-face 
    font-family="fontello"
    font-weight="500"
    font-stretch="normal"
    units-per-em="1000"
    panose-1="2 0 6 3 0 0 0 0 0 0"
    ascent="800"
    descent="-200"
    bbox="-2 -200.852 1438 934"
    underline-thickness="50"
    underline-position="-100"
    unicode-range="U+0023-1F6AB"
  />
<missing-glyph horiz-adv-x="364" 
d="M33 0v666h265v-666h-265zM66 33h199v600h-199v-600z" />
    <glyph glyph-name=".notdef" horiz-adv-x="364" 
d="M33 0v666h265v-666h-265zM66 33h199v600h-199v-600z" />
    <glyph glyph-name=".null" horiz-adv-x="0" 
 />
    <glyph glyph-name="nonmarkingreturn" horiz-adv-x="333" 
 />
    <glyph glyph-name="numbersign" unicode="#" horiz-adv-x="817" 
d="M799 431h-153l-28 -223h181v-112h-195l-28 -223h-112l28 223h-223l-28 -223h-111l27 223h-139v112h154l27 223h-181v112h196l27 223h112l-28 -223h223l28 223h112l-28 -223h139v-112zM506 208l28 223h-223l-28 -223h223z" />
    <glyph glyph-name="plus" unicode="+" 
d="M911 431v-223h-335v-335h-223v335h-335v223h335v335h223v-335h335z" />
    <glyph glyph-name="hyphen" unicode="-" 
d="M18 208v223h893v-223h-893z" />
    <glyph glyph-name="colon" unicode=":" horiz-adv-x="301" 
d="M50 380q0 40 28 69t70 29q40 0 68.5 -29t28.5 -69q0 -41 -28.5 -69.5t-68.5 -28.5q-42 0 -70 28.5t-28 69.5zM50 29q0 40 28 68.5t70 28.5q40 0 68.5 -28.5t28.5 -68.5q0 -41 -28.5 -69.5t-68.5 -28.5q-42 0 -70 28.5t-28 69.5z" />
    <glyph glyph-name="semicolon" unicode=";" horiz-adv-x="302" 
d="M50 380q0 40 28 69t70 29q40 0 68.5 -29t28.5 -69q0 -41 -28.5 -69.5t-68.5 -28.5q-42 0 -70 28.5t-28 69.5zM50 -154v-11q92 -4 147 46t55 118q0 49 -28 80.5t-72 31.5q-36 0 -60 -24.5t-24 -60.5q0 -28 17 -50t47 -28q-10 -67 -82 -102z" />
    <glyph glyph-name="equal" unicode="=" horiz-adv-x="1228" 
d="M256 -13v256h768v-256h-768zM256 345v257h768v-257h-768z" />
    <glyph glyph-name="at" unicode="@" 
d="M851 96h-163q-54 0 -88 46q-60 -47 -136 -47q-92 0 -157.5 65.5t-65.5 158t65.5 158t157.5 65.5h224v-334h90l1 -1q20 54 20 113q0 139 -98.5 236.5t-236.5 97.5t-236 -97.5t-98 -237t98 -237t236 -97.5q141 0 237 98l79 -79q-131 -131 -315.5 -131t-315.5 131
t-131 315.5t131 315.5t315.5 131t315.5 -131t131 -315q0 -120 -60 -224zM576 318v112h-112q-45 0 -78 -33t-33 -78.5t33 -78.5t78.5 -33t78.5 33t33 78z" />
    <glyph glyph-name="h" unicode="h" horiz-adv-x="1228" 
d="M281 54q0 56 32 138q56 164 76 215q31 82 51 144h-25h-31h-26q-51 10 -51 51q0 51 51 51h564q51 0 51 -51q0 -41 -36 -47q-15 -5 -31 -4h-15h-20h-32q11 -41 52 -144q61 -164 77 -210q30 -92 30 -143q0 -46 -40 -87q-31 -31 -87 -31h-461q-51 0 -93 31q-36 46 -36 87z
M481 345h318l-67 206h-184z" />
    <glyph glyph-name="paragraph" unicode="&#xb6;" horiz-adv-x="705" 
d="M688 766v-112h-112v-781h-112v781h-111v-781h-112v447q-92 0 -157.5 65t-65.5 157.5t65.5 158t157.5 65.5h447z" />
    <glyph glyph-name="uni2139" unicode="&#x2139;" horiz-adv-x="482" 
d="M74 320h-56v111h335v-390q0 -24 16.5 -40t39.5 -16h55v-112h-446v112h56q23 0 39.5 16t16.5 40v223q0 24 -16 40t-40 16zM130 654.5q0 111.5 111.5 111.5t111.5 -111.5t-111.5 -111.5t-111.5 111.5z" />
    <glyph glyph-name="arrowleft" unicode="&#x2190;" 
d="M464 -127l-446 447l446 446l159 -158l-177 -177h465v-223h-465l177 -176z" />
    <glyph glyph-name="arrowup" unicode="&#x2191;" 
d="M18 321l446 445l447 -445l-159 -159l-176 177v-466h-223v466l-177 -177z" />
    <glyph glyph-name="arrowright" unicode="&#x2192;" 
d="M464 766l447 -446l-447 -447l-157 159l175 176h-464v224h464l-175 176z" />
    <glyph glyph-name="arrowdown" unicode="&#x2193;" 
d="M911 320l-447 -447l-446 447l158 158l177 -176v464h223v-464l176 175z" />
    <glyph glyph-name="uni21B3" unicode="&#x21b3;" horiz-adv-x="775" 
d="M115 150q-41 0 -70.5 29.5t-29.5 70.5v350h140v-310h365v150l240 -220l-240 -220v150h-405z" />
    <glyph glyph-name="uni21B6" unicode="&#x21b6;" 
d="M804 663q107 -107 107 -262q0 -150 -107 -257l-84 -84l-79 80l84 84q74 74 74 177q0 108 -74 183q-72 72 -180 72t-180 -72l-153 -155h141v-109h-335v334h112v-147l156 156q103 103 259 103t259 -103zM533 -127l-79 79l79 80l79 -80z" />
    <glyph glyph-name="uni21C4" unicode="&#x21c4;" 
d="M911 96h-670v-111l-223 168l223 167v-112h670v-112zM18 431v112h670v111l223 -166l-223 -168v111h-670z" />
    <glyph glyph-name="infinity" unicode="&#x221e;" horiz-adv-x="1228" 
d="M103 294.5q0 107.5 71 179.5q77 77 179 77q108 0 179 -77l82 -77l83 82q71 71 178 72q103 0 180 -77q71 -72 71 -179.5t-71 -179.5q-77 -77 -180 -77q-107 0 -178 77l-83 77l-82 -82q-71 -71 -179 -72q-102 0 -179 77q-71 72 -71 179.5zM251 294.5q0 -46.5 30 -76.5
q26 -31 72 -31h5q41 0 72 31l77 76l-77 77q-30 31 -77 31q-40 0 -71 -30.5t-31 -77zM722 294l77 -76q30 -31 72 -31h4q47 0 72 31q31 30 31 76.5t-31 76.5q-25 31 -72 31h-4q-41 0 -72 -31z" />
    <glyph glyph-name="house" unicode="&#x2302;" 
d="M464 766l447 -446h-112v-447h-669v447h-112zM688 -15v401l-224 157l-223 -157v-401h168v168h112v-168h167z" />
    <glyph glyph-name="uni2328" unicode="&#x2328;" horiz-adv-x="1030" 
d="M945 600q29 0 49.5 -21t20.5 -49v-460q0 -28 -20.5 -49t-49.5 -21h-860q-29 0 -49.5 21t-20.5 49v460q0 28 20.5 49t49.5 21h860zM565 500v-100h100v100h-100zM715 350h-100v-100h100v100zM415 500v-100h100v100h-100zM565 350h-100v-100h100v100zM265 500v-100h100v100
h-100zM415 350h-100v-100h100v100zM115 500v-100h100v100h-100zM265 350h-100v-100h100v100zM215 100v100h-100v-100h100zM765 100v100h-500v-100h500zM915 100v100h-100v-100h100zM765 250h100v100h-100v-100zM915 400v100h-200v-100h200z" />
    <glyph glyph-name="uni2387" unicode="&#x2387;" horiz-adv-x="817" 
d="M576 766h112v-108q0 -115 -82 -197l-316 -314q-44 -45 -48 -106h111l-167 -168l-168 168h113q6 111 80 185l316 314q49 50 49 118v108zM686 41h113l-167 -168l-168 168h111q-4 61 -48 106l-63 62l80 79l62 -62q74 -74 80 -185z" />
    <glyph glyph-name="uni2389" unicode="&#x2389;" horiz-adv-x="705" 
d="M18 -127v893h223v-893h-223zM464 -127v893h224v-893h-224z" />
    <glyph glyph-name="uni23CF" unicode="&#x23cf;" 
d="M18 208l446 558l447 -558h-893zM18 -127v223h892v-223h-892z" />
    <glyph glyph-name="uni23E9" unicode="&#x23e9;" horiz-adv-x="910" 
d="M881 324q14 -10 14 -24q0 -6 -3.5 -12t-7.5 -9l-3 -3l-373 -248q-22 -14 -37 -4.5t-15 36.5v480q0 27 15 36t37 -5zM427 324q14 -10 14 -24q0 -6 -3.5 -12t-7.5 -9l-3 -3l-360 -248q-22 -14 -37 -4.5t-15 36.5v480q0 27 15 36t37 -5z" />
    <glyph glyph-name="uni23EA" unicode="&#x23ea;" horiz-adv-x="910" 
d="M15 300q0 6 3.5 12t7.5 9l3 3l373 247q22 14 37 5t15 -36v-480q0 -27 -15 -36.5t-37 4.5l-373 248q-14 10 -14 24zM469 300q0 6 3.5 12t7.5 9l3 3l360 247q22 14 37 5t15 -36v-480q0 -27 -15 -36.5t-37 4.5l-360 248q-14 10 -14 24z" />
    <glyph glyph-name="uni23ED" unicode="&#x23ed;" 
d="M18 766l670 -446l-670 -447v893zM688 -15v669h223v-669h-223z" />
    <glyph glyph-name="uni23EE" unicode="&#x23ee;" 
d="M911 -127l-670 447l670 446v-893zM18 -15v669h223v-669h-223z" />
    <glyph glyph-name="uni23F3" unicode="&#x23f3;" horiz-adv-x="590" 
d="M575 571q0 -36 -30.5 -76.5t-66.5 -70.5t-66.5 -64.5t-30.5 -59.5t30.5 -59.5t66.5 -64.5t66.5 -70.5t30.5 -76.5v-118q0 -33 -86 -72t-194 -39t-194 39t-86 72v118q0 36 30.5 76.5t66.5 70.5t66.5 64.5t30.5 59.5t-30.5 59.5t-66.5 64.5t-66.5 70.5t-30.5 76.5v118
q0 33 86 72t194 39t194 -39t86 -72v-118zM92 684l-15 -11q-9 -11 2 -17q91 -54 216 -54q133 0 219 51q19 11 -16 31q-11 6 -29.5 15t-71 24t-99.5 15q-120 0 -206 -54zM320 300q0 15 5 29.5t9.5 24t18 25t19.5 21.5l26 25l25 24q91 86 91 122l3 50q-98 -54 -222 -54
q-123 0 -221 54l2 -50q0 -36 91 -122l25 -24l26 -25q6 -6 19.5 -21.5t18 -25t9.5 -24t5 -29.5t-5 -29.5t-9.5 -24t-18 -25t-19.5 -21.5l-26 -25l-25 -24q-91 -86 -91 -122v-67q7 3 66.5 23t93.5 44.5t34 58.5q0 18 12.5 26t25 0t12.5 -26q0 -34 34 -58.5t93.5 -44.5
t66.5 -23v67q0 36 -91 122l-25 24l-26 25q-6 6 -19.5 21.5t-18 25t-9.5 24t-5 29.5z" />
    <glyph glyph-name="H18543" unicode="&#x25aa;" 
d="M18 -127v893h893v-893h-893z" />
    <glyph glyph-name="uni25B4" unicode="&#x25b4;" horiz-adv-x="490" 
d="M15 100l230 400l230 -400h-460z" />
    <glyph glyph-name="uni25B6" unicode="&#x25b6;" horiz-adv-x="705" 
d="M18 766l670 -446l-670 -447v893z" />
    <glyph glyph-name="uni25B8" unicode="&#x25b8;" horiz-adv-x="430" 
d="M15 530l400 -230l-400 -230v460z" />
    <glyph glyph-name="uni25BE" unicode="&#x25be;" horiz-adv-x="490" 
d="M475 500l-230 -400l-230 400h460z" />
    <glyph glyph-name="uni25C2" unicode="&#x25c2;" horiz-adv-x="430" 
d="M415 530v-460l-400 230z" />
    <glyph glyph-name="uni2600" unicode="&#x2600;" 
d="M464.5 543q92.5 0 158 -65.5t65.5 -158t-65.5 -158t-158 -65.5t-158 65.5t-65.5 158t65.5 158t158 65.5zM521 711q0 -24 -17 -40.5t-39.5 -16.5t-39 16.5t-16.5 40.5t16.5 39.5t38.5 15.5q24 0 40.5 -16t16.5 -39zM130 599q0 55 56 55q55 0 55 -55q0 -56 -55 -56
q-56 0 -56 56zM74 376q23 0 39.5 -16t16.5 -40t-16 -40t-40 -16t-40 16.5t-16 39.5q0 24 16 40t40 16zM130 41q0 55 56 55q55 0 55 -55q0 -56 -55 -56q-56 0 -56 56zM409 -70q0 22 16.5 38.5t38.5 16.5q24 0 40.5 -16.5t16.5 -39t-17 -39.5t-39.5 -17t-39 16.5t-16.5 40.5z
M704.5 1.5q-15.5 15.5 -15.5 38.5t15.5 39.5t39.5 16.5t39.5 -16.5t15.5 -39.5t-15.5 -38.5t-39.5 -15.5t-39.5 15.5zM856 264q-24 0 -40.5 16.5t-16.5 39.5q0 24 17 40t39.5 16t39 -16t16.5 -40t-16.5 -40t-38.5 -16zM783.5 559.5q-15.5 -16.5 -39.5 -16.5t-39.5 16.5
t-15.5 39.5t15.5 40t39.5 17t39.5 -17t15.5 -40t-15.5 -39.5z" />
    <glyph glyph-name="uni2601" unicode="&#x2601;" 
d="M688 488q92 0 157.5 -65.5t65.5 -158t-65.5 -158t-157.5 -65.5h-447q-92 0 -157.5 65.5t-65.5 158t65.5 158t157.5 65.5q1 0 30 -4q30 53 81 84t112 31q60 0 112.5 -31.5t81.5 -83.5q28 4 30 4zM688 153q45 0 78 33t33 78.5t-33 78.5t-78.5 33t-78.5 -33t-33 -79h-112
q0 111 89 178q-33 46 -89 46q-45 0 -78 -33t-33 -79q0 -22 7 -40l-104 -38q-15 36 -15 76q-44 -2 -77.5 -33.5t-33.5 -76.5t33 -78t78 -33h447z" />
    <glyph glyph-name="uni2602" unicode="&#x2602;" 
d="M464.5 766q184.5 0 315.5 -131t131 -315h-112q0 16 -12.5 29t-29.5 13t-29.5 -13t-12.5 -29h-111q0 16 -13 29t-29.5 13t-28.5 -13t-12 -29v-279q0 -69 -49.5 -118.5t-119 -49.5t-118 49.5t-48.5 118.5h112q0 -24 16 -40t39 -16q24 0 40 16t16 40v279q0 16 -12.5 29
t-29.5 13t-29.5 -13t-12.5 -29h-111q0 16 -13 29t-29.5 13t-29 -13t-12.5 -29h-112q0 184 131 315t315.5 131z" />
    <glyph glyph-name="uni2605" unicode="&#x2605;" 
d="M636 219l108 -346l-280 215l-278 -215l108 347l-276 211h335l111 335l112 -335h335z" />
    <glyph glyph-name="uni2606" unicode="&#x2606;" horiz-adv-x="910" 
d="M895 404l-262 -198l94 -346l-272 208l-272 -208l94 346l-262 198h321l119 336l119 -336h321zM455 166l151 -125l-62 178l142 115l-176 -5l-55 202l-55 -202l-176 5l142 -115l-62 -178z" />
    <glyph glyph-name="uni2611" unicode="&#x2611;" horiz-adv-x="947" 
d="M0 92v474q0 32 12.5 61t33.5 50t50 34t62 13h553q13 0 26 -3l-96 -96h-483q-24 0 -41.5 -17.5t-17.5 -41.5v-474q0 -24 17.5 -41.5t41.5 -17.5h553q24 0 41 17.5t17 41.5v167l99 99v-266q0 -33 -12.5 -61t-34 -50t-50 -34.5t-60.5 -12.5h-553q-33 0 -62 12.5t-50 34.5
t-33.5 50t-12.5 61zM198 431q0 17 11 28l51 51q12 12 28.5 12t28.5 -12l175 -175l335 337q12 12 29.5 12t28.5 -12l51 -50q11 -12 11 -29t-11 -28l-365 -366l-51 -50q-12 -12 -28.5 -12t-28.5 12l-51 50l-203 204q-11 11 -11 28z" />
    <glyph glyph-name="uni2630" unicode="&#x2630;" horiz-adv-x="730" 
d="M665 350q21 0 35.5 -14.5t14.5 -35.5t-14.5 -35.5t-35.5 -14.5h-600q-21 0 -35.5 14.5t-14.5 35.5t14.5 35.5t35.5 14.5h600zM65 450q-21 0 -35.5 14.5t-14.5 35.5t14.5 35.5t35.5 14.5h600q21 0 35.5 -14.5t14.5 -35.5t-14.5 -35.5t-35.5 -14.5h-600zM665 150
q21 0 35.5 -14.5t14.5 -35.5t-14.5 -35.5t-35.5 -14.5h-600q-21 0 -35.5 14.5t-14.5 35.5t14.5 35.5t35.5 14.5h600z" />
    <glyph glyph-name="sun" unicode="&#x263c;" 
d="M464.5 431q-45.5 0 -78.5 -33t-33 -78.5t33 -78.5t78.5 -33t78.5 33t33 78.5t-33 78.5t-78.5 33zM464.5 543q92.5 0 158 -65.5t65.5 -158t-65.5 -158t-158 -65.5t-158 65.5t-65.5 158t65.5 158t158 65.5zM409 711q0 55 55 55q57 0 57 -55q0 -57 -57 -57q-55 0 -55 57z
M130 599q0 55 56 55q55 0 55 -55q0 -56 -55 -56q-56 0 -56 56zM74 376q23 0 39.5 -16t16.5 -40t-16 -40t-40 -16t-40 16.5t-16 39.5q0 24 16 40t40 16zM130 41q0 55 56 55q55 0 55 -55q0 -56 -55 -56q-56 0 -56 56zM409 -70q0 22 16.5 38.5t38.5 16.5q24 0 40.5 -16.5
t16.5 -39t-17 -39.5t-39.5 -17t-39 16.5t-16.5 40.5zM704.5 1.5q-15.5 15.5 -15.5 38.5t15.5 39.5t39.5 16.5t39.5 -16.5t15.5 -39.5t-15.5 -38.5t-39.5 -15.5t-39.5 15.5zM856 264q-24 0 -40.5 16.5t-16.5 39.5q0 24 17 40t39.5 16t39 -16t16.5 -40t-16.5 -40t-38.5 -16z
M783.5 559.5q-15.5 -16.5 -39.5 -16.5t-39.5 16.5t-15.5 39.5t15.5 40t39.5 17t39.5 -17t15.5 -40t-15.5 -39.5z" />
    <glyph glyph-name="uni263D" unicode="&#x263d;" horiz-adv-x="850" 
d="M538 188q105 105 124.5 252.5t-51.5 271.5q52 -29 96 -73q128 -128 128 -309.5t-128 -309.5t-310 -128t-310 128q-42 42 -72 96q124 -71 271 -52t252 124z" />
    <glyph glyph-name="uni263E" unicode="&#x263e;" 
d="M182 510q-52 -82 -52 -181q0 -141 100.5 -242.5t243.5 -101.5q98 0 181 53q-187 18 -321 151.5t-152 320.5zM348 766q-56 -100 -56 -205q0 -172 121.5 -293t292.5 -121q105 0 205 56q-42 -145 -162.5 -237.5t-274.5 -92.5q-188 0 -322 133.5t-134 322.5q0 154 92.5 274.5
t237.5 162.5z" />
    <glyph glyph-name="uni2661" unicode="&#x2661;" 
d="M664 599q-26 0 -53 -15t-41 -30l-14 -16l-92 -96l-91 96l-15 18q-10 10 -38 26.5t-54 16.5q-50 0 -89 -33.5t-46 -83.5l333 -383l334 383q-7 50 -45.5 83.5t-88.5 33.5zM664 711q102 0 174.5 -72.5t72.5 -176.5v-20l-447 -512l-446 512v20q0 102 72.5 175.5t175.5 73.5
q120 0 198 -108q78 108 200 108z" />
    <glyph glyph-name="heart" unicode="&#x2665;" 
d="M464 603q78 108 200 108q102 0 174.5 -72.5t72.5 -176.5v-20l-447 -512l-446 512v20q0 102 72.5 175.5t175.5 73.5q120 0 198 -108z" />
    <glyph glyph-name="musicalnote" unicode="&#x266a;" horiz-adv-x="610" 
d="M395 771q0 -26 17 -55.5t41 -55.5l52 -56q28 -30 50 -63t34 -69t4 -80.5t-39 -92.5q-18 -29 -26 -17q-4 5 0 17q6 16 6.5 43t-6 60t-21 63t-43.5 53.5t-69 29.5v-535q1 -49 -38 -96t-103 -70q-76 -28 -144.5 -8t-88.5 75t19.5 113.5t115.5 86.5q85 31 159 3v654h80z" />
    <glyph glyph-name="musicalnotedbl" unicode="&#x266b;" horiz-adv-x="724" 
d="M0 52q0 25 11.5 47t31.5 37.5t47.5 25t57.5 9.5q14 0 26 -2t24 -5v408l526 152v-553q0 -24 -11.5 -45.5t-31.5 -38t-47.5 -26t-58 -9.5t-57 9.5t-46.5 26t-32 38t-12 45.5t12 45.5t32 37.5t46.5 25.5t57.5 9.5q25 0 49 -6v261l-328 -95v-397q0 -24 -11.5 -45.5
t-31.5 -37.5t-47.5 -25.5t-58 -9.5t-58 9.5t-47.5 25.5t-31.5 37.5t-11.5 45.5z" />
    <glyph glyph-name="uni268F" unicode="&#x268f;" horiz-adv-x="630" 
d="M185 600q80 0 80 -80v-90q0 -80 -80 -80h-90q-80 0 -80 80v90q0 80 80 80h90zM535 600q80 0 80 -80v-90q0 -80 -80 -80h-90q-80 0 -80 80v90q0 80 80 80h90zM185 250q80 0 80 -80v-90q0 -80 -80 -80h-90q-80 0 -80 80v90q0 80 80 80h90zM535 250q80 0 80 -80v-90
q0 -80 -80 -80h-90q-80 0 -80 80v90q0 80 80 80h90z" />
    <glyph glyph-name="uni2691" unicode="&#x2691;" horiz-adv-x="930" 
d="M889 555q14 5 22 -1.5t0 -18.5q-75 -109 -133.5 -178t-98 -97.5t-70 -34.5t-54 7t-44.5 31t-48.5 32.5t-59.5 17.5t-82 -20.5t-112 -75.5l90 -353h-101l-183 720l93 34q71 52 124 75.5t87.5 21t60.5 -20t48 -44.5l46 -56q23 -29 58 -52t79.5 -34t115.5 0t162 47z" />
    <glyph glyph-name="uni2699" unicode="&#x2699;" 
d="M911 264l-133 -56q-8 -22 -12 -31l55 -133l-79 -78l-135 52q-9 -4 -31 -12l-55 -133h-112l-56 132q-11 4 -33 13l-132 -54l-78 78l53 134q-1 3 -4.5 9.5t-6 12t-3.5 10.5l-131 55v112l131 56l14 33l-54 132l78 79l133 -54q22 9 33 13l55 132h112l56 -132q14 -5 31 -13
l133 55l80 -79l-54 -135q6 -12 12 -30l133 -56v-112zM463.5 153q69.5 0 118.5 48.5t49 118t-49 119t-118.5 49.5t-118.5 -49.5t-49 -119t49 -118t118.5 -48.5z" />
    <glyph glyph-name="uni26A0" unicode="&#x26a0;" horiz-adv-x="990" 
d="M971 -74q11 -18 -1 -34.5t-30 -16.5h-890q-18 0 -30 16.5t-1 34.5l446 782q9 17 30 17t30 -17zM556 -25v100h-122v-100h122zM556 150v300h-122v-300h122z" />
    <glyph glyph-name="uni26A1" unicode="&#x26a1;" 
d="M911 766l-390 -446l167 -112l-670 -335l391 335l-168 112z" />
    <glyph glyph-name="uni26AB" unicode="&#x26ab;" horiz-adv-x="730" 
d="M365 650q145 0 247.5 -102.5t102.5 -247.5t-102.5 -247.5t-247.5 -102.5t-247.5 102.5t-102.5 247.5t102.5 247.5t247.5 102.5z" />
    <glyph glyph-name="uni26BF" unicode="&#x26bf;" 
d="M632.5 654q-69.5 0 -119 -48.5t-49.5 -117.5q0 -14 4 -32l11 -57l-175 -175l-174 -173v-66h111v111h112v112h111v47l80 79l57 -11q18 -3 31 -3q70 0 118.5 49t48.5 118.5t-48.5 118t-118 48.5zM632.5 766q115.5 0 197 -81.5t81.5 -197t-81.5 -197.5t-197.5 -82
q-28 0 -51 5l-5 -5v-112h-112v-111h-111v-112h-335v223l340 340q-5 23 -5 52q0 115 82 196.5t197.5 81.5zM576 488q0 55 56 55t56 -55q0 -57 -56 -57t-56 57z" />
    <glyph glyph-name="uni26C6" unicode="&#x26c6;" 
d="M688 599q92 0 157.5 -65.5t65.5 -157.5t-65.5 -157.5t-157.5 -65.5h-447q-92 0 -157.5 65.5t-65.5 157.5t65.5 157.5t157.5 65.5q1 0 30 -3q30 52 81 83.5t112 31.5q60 0 112.5 -32t81.5 -83q28 3 30 3zM688 264q45 0 78 33t33 79t-33 79t-78.5 33t-78.5 -33t-33 -79
h-112q0 109 90 178q-33 45 -90 45q-45 0 -78 -33t-33 -78q0 -22 7 -40l-104 -38q-15 36 -15 75q-44 -1 -77.5 -33t-33.5 -76q0 -46 33 -79t78 -33h447zM109 -55q-15 -15 -37.5 -15t-38 15.5t-15.5 37.5t16 38q9 9 47 28t71 33l34 14q-56 -130 -77 -151zM332 -55
q-15 -15 -36.5 -15t-38.5 15q-16 16 -16 38t16 38q9 9 47.5 28t72.5 33l32 14q-55 -130 -77 -151zM556 -55q-16 -15 -38 -15t-38 15.5t-16 37.5t16 38q10 9 47.5 28t71.5 33l33 14q-56 -130 -76 -151z" />
    <glyph glyph-name="uni26EF" unicode="&#x26ef;" horiz-adv-x="947" 
d="M0 346v88q0 7 5 7q15 4 31 6l32 4q5 0 8 0.5t7 0.5q6 22 18 44q-9 15 -21 30l-24 29q-5 6 0 10q15 18 31.5 35t34.5 32q6 4 10 -1q8 -8 18 -15l18 -14l23 -16q22 11 44 18q2 22 4.5 41t6.5 37q0 5 7 5h88q7 0 7 -6q3 -15 5.5 -30.5t4.5 -31.5l2 -15q21 -7 43 -18l20 15
l21 15q10 8 19 16q6 4 10 -1q5 -4 9 -8l9 -9l23 -23l24 -26q3 -6 0 -10q-11 -11 -22 -25l-23 -33q6 -11 11 -23l9 -23q8 -2 18 -3t21 -3l19 -2q9 -1 17 -4q7 -2 7 -7v-88q0 -6 -6 -8q-14 -3 -31 -5l-32 -4q-4 0 -14 -2q-7 -21 -18 -43q9 -15 20.5 -30t24.5 -29q4 -6 0 -10
q-15 -18 -31.5 -35t-34.5 -32q-7 -4 -10 1q-8 7 -17.5 14.5t-19.5 13.5q-5 6 -11 9.5t-11 7.5q-22 -11 -44 -18q-2 -18 -4 -38.5t-8 -39.5q-2 -5 -7 -5h-88q-7 0 -7 5q-3 15 -5 31l-4 31l-2 16q-21 7 -43 18l-10 -7q-5 -3 -10 -8l-21 -15q-10 -8 -19 -16q-7 -4 -10 1
q-5 4 -8 8l-10 9l-24 22q-12 12 -23 27q-4 4 0 9q12 14 23.5 29.5t20.5 29.5q-10 21 -19 46q-8 2 -18 3t-21 3l-19 2q-9 1 -19 3q-5 3 -5 8zM207 389q0 -37 26.5 -63.5t63.5 -26.5t63 26.5t26 63.5t-26 63t-63 26t-63.5 -26t-26.5 -63zM552 132q-3 6 4 9l22 8q10 4 22 8
q1 6 1.5 10t2.5 9.5t3.5 9t4.5 8.5q-8 11 -14 21t-13 20q-3 6 2 9l66 59q4 4 9 1l18 -15l19 -16q19 8 37 9q5 11 11 21.5t11 20.5q3 5 8 3l85 -26q5 -3 5 -9q-2 -11 -4.5 -22.5t-4.5 -22.5q9 -6 15 -13.5t12 -16.5q12 1 23.5 1.5t23.5 0.5q5 0 7 -5l19 -87q2 -5 -4 -8
q-11 -5 -21 -9l-23 -7q-1 -6 -1.5 -10t-2.5 -9.5t-4 -9t-4 -7.5l15 -21l12 -20q2 -5 -2 -9l-66 -60q-4 -4 -9 0q-9 8 -18.5 15t-17.5 15q-21 -8 -39 -9l-10 -22l-11 -20q-3 -5 -8 -3l-85 26q-5 3 -5 9q2 11 3.5 23t4.5 23q-15 13 -26 29q-12 -2 -24.5 -3t-23.5 1q-5 0 -8 5z
M589 573q0 5 6 8q10 2 20.5 4.5t21.5 4.5q2 4 3 8.5t3 8.5t5 7t5 8q-6 10 -10 20l-8 20q-2 4 2 8l67 44q5 3 9 -1q8 -7 15 -15l14 -16q17 3 35 3q12 19 25 34q3 4 9 3l72 -36q5 -3 3 -9q-2 -10 -5.5 -19.5t-6.5 -20.5q10 -13 19 -30q11 -1 22 -1.5t22 -2.5q5 -2 5 -7l5 -81
q0 -4 -5 -6q-10 -2 -20 -5l-22 -5q-2 -4 -3 -7.5t-3 -7.5q-3 -8 -9 -15q6 -11 10 -21t8 -19q2 -5 -3 -8l-66 -45q-6 -3 -9 1q-13 13 -29 32q-9 -2 -18 -3t-18 0q-6 -10 -12 -19l-13 -17q-3 -3 -9 -1l-72 36q-6 2 -3 7l6 21q3 10 7 20q-6 6 -11 13.5t-9 16.5q-11 1 -22 1.5
t-22 2.5q-5 0 -5 6zM693 148q-8 -23 3 -44.5t36 -29.5q23 -8 44.5 3t28.5 35q9 23 -2 44.5t-36 30.5q-23 7 -44.5 -4t-29.5 -35zM716.5 528q7.5 -21 27.5 -32q21 -9 42 -2t31 27q10 21 3 42t-27 30q-20 11 -41 3.5t-32 -27.5t-3.5 -41z" />
    <glyph glyph-name="uni2702" unicode="&#x2702;" horiz-adv-x="1228" 
d="M241 566q0 40 25 82q31 30 72 30t77 -36q25 -25 51 -76q36 -77 61 -108q31 -51 87 -97q47 41 87 103q51 71 67 102q26 46 51 82q46 36 72 36q31 0 51 -16q51 36 82 36t46 -20l-36 5q-40 -16 -61 -51q20 -26 20 -67t-31 -82q-36 -36 -76 -36q-21 0 -41.5 10.5t-35.5 20.5
l-10 10q-26 0 -128 -194q5 0 76.5 -82.5t102.5 -133.5q36 -61 36 -102q0 -51 -31 -97l-241 322l-235 -322q-31 46 -31 97t36 102q16 31 97 134l77 82l-5 5l-13 25q-8 16 -18 26q-10 25 -51 92q-26 41 -36 41q-5 0 -31 -21q-30 -20 -56 -20q-46 0 -77 41q-30 30 -30 77z
M281 571q0 -77 72 -77q26 0 46.5 18t20.5 43q0 31 -26 57t-51 26q-62 0 -62 -67zM814 561q0 -26 21 -46q15 -16 45.5 -16t51.5 20q20 31 20 52q0 67 -61 67q-36 0 -56 -21q-21 -26 -21 -56z" />
    <glyph glyph-name="uni2708" unicode="&#x2708;" horiz-adv-x="1030" 
d="M282 -170l125 400h-179l-113 -100h-100l80 170l-80 170h100l113 -100h179l-125 400h100l225 -400h258q6 0 16 -0.5t36 -4t46 -10.5t36 -21t16 -34q0 -31 -37.5 -48.5t-75.5 -19.5l-37 -2h-258l-225 -400h-100z" />
    <glyph glyph-name="uni2709" unicode="&#x2709;" 
d="M467 335l-449 210v109h893v-109zM467 212l444 210v-437h-893v438z" />
    <glyph glyph-name="uni270D" unicode="&#x270d;" horiz-adv-x="947" 
d="M0 92v474q0 32 12.5 61t33.5 50t50 34t62 13h553q2 0 5 -0.5t5 -0.5l-98 -98h-465q-24 0 -41.5 -17.5t-17.5 -41.5v-474q0 -24 17.5 -41.5t41.5 -17.5h553q24 0 41 17.5t17 41.5v229l99 98v-327q0 -33 -12.5 -61t-34 -50t-50 -34.5t-60.5 -12.5h-553q-33 0 -62 12.5
t-50 34.5t-33.5 50t-12.5 61zM324 101l56 169l335 335l113 -114l-334 -335zM445 257q3 -4 8.5 -4t8.5 4l263 262q10 10 0.5 18.5t-18.5 -0.5l-262 -262q-9 -9 0 -18zM772 662l47 48q15 15 35 15t33 -15l24 -23l23 -23q13 -15 13.5 -34.5t-13.5 -34.5l-49 -47z" />
    <glyph glyph-name="uni270E" unicode="&#x270e;" 
d="M846 701q66 -66 66 -157.5t-66 -157.5l-512 -513h-316l1 317l511 511q65 65 158 65t158 -65zM288 -15l478 479l-158 157l-474 -473q34 29 78 27.5t75 -32.5q32 -32 32 -79t-32 -79h1z" />
    <glyph glyph-name="uni270F" unicode="&#x270f;" 
d="M846 701q66 -66 66 -157.5t-66 -157.5l-512 -513h-316l1 317l511 511q66 66 158 66t158 -66zM287 -15q32 32 32 79t-32.5 79.5t-79 32.5t-79.5 -33v-158h159zM764 464q33 32 33 79t-32.5 79t-78.5 32t-79 -32z" />
    <glyph glyph-name="uni2710" unicode="&#x2710;" 
d="M878.5 733.5q32.5 -32.5 32.5 -79t-33 -79.5l-422 -421q-16 60 -56.5 101t-100.5 56l421 423q32 32 79 32t79.5 -32.5zM320 17l-302 -144l144 303q32 32 79 32t79.5 -32.5t32.5 -79t-33 -79.5z" />
    <glyph glyph-name="uni2712" unicode="&#x2712;" horiz-adv-x="1010" 
d="M870 768q70 -5 100 -16t25 -25.5t-21 -28.5l-32 -32q-18 -18 -17 -30q2 -14 -11 -46.5t-29 -51.5q-10 -12 -95 -28.5t-165 -27.5l-80 -11q13 -7 36.5 -18.5t95 -32.5t141.5 -27q-26 -38 -80.5 -66t-114.5 -40t-116 -18.5t-93 -6.5h-36l12 -11q7 -7 31 -23.5t50 -29
t65.5 -21.5t78.5 -6q-2 -2 -19 -15.5t-26 -19.5l-31 -21q-21 -14 -39 -21l-42 -17q-26 -10 -51.5 -12.5t-56 -3.5t-64.5 5.5t-70 18.5l-149 -246q-7 -9 -21.5 -9.5t-25 11.5t-2.5 29l122 266q76 164 146.5 274t199.5 239q75 75 167.5 101.5t216.5 17.5z" />
    <glyph glyph-name="uni2713" unicode="&#x2713;" 
d="M352 -39l-334 332l158 160l176 -174l400 401l159 -160z" />
    <glyph glyph-name="uni2714" unicode="&#x2714;" 
d="M464.5 766q184.5 0 315.5 -131t131 -315.5t-131 -315.5t-315.5 -131t-315.5 131t-131 315.5t131 315.5t315.5 131zM395 113l348 348l-79 79l-269 -268l-126 126l-79 -78z" />
    <glyph glyph-name="uni2715" unicode="&#x2715;" horiz-adv-x="817" 
d="M799 86l-156 -156l-234 234l-235 -234l-156 156l234 234l-234 234l156 157l235 -235l234 235l156 -157l-234 -234z" />
    <glyph glyph-name="uni2716" unicode="&#x2716;" 
d="M464.5 766q184.5 0 315.5 -131t131 -315.5t-131 -315.5t-315.5 -131t-315.5 131t-131 315.5t131 315.5t315.5 131zM685 178l-141 142l141 141l-79 79l-142 -141l-141 141l-79 -79l141 -141l-141 -142l79 -79l141 141l142 -141z" />
    <glyph glyph-name="uni2731" unicode="&#x2731;" horiz-adv-x="733" 
d="M1 457q-5 19 5 37l37 64q11 18 30.5 23t37.5 -5l170 -99v197q0 21 14 35.5t36 14.5h72q21 0 35.5 -14.5t14.5 -34.5v-198l170 99q18 10 37.5 5t30.5 -23l35 -64q11 -18 6 -37t-23 -29l-171 -99l171 -99q18 -11 23 -29.5t-5 -36.5l-36 -65q-11 -17 -30.5 -22t-37.5 5
l-170 99v-197q0 -21 -14.5 -35.5t-35.5 -14.5h-72q-22 0 -36 14.5t-14 34.5v198l-170 -99q-18 -11 -37.5 -5.5t-30.5 22.5l-37 65q-9 18 -4.5 36.5t22.5 29.5l172 99l-172 99q-18 10 -23 29z" />
    <glyph glyph-name="uni2753" unicode="&#x2753;" horiz-adv-x="482" 
d="M286 -70q0 -24 -16.5 -40.5t-39.5 -16.5q-24 0 -40 17t-16 39.5t16 39t40 16.5t40 -16.5t16 -38.5zM133 82q-41 48 -41 103q0 61 41 95l187 186q33 32 33 79t-32.5 79.5t-79.5 32.5t-79 -32.5t-32 -79.5h-112q0 93 66 159q64 62 158 62t158 -64t64 -157t-64 -158
l-188 -181q-8 -9 -8 -20.5t8 -19.5q21 -19 40 0q8 8 8 19h112q0 -55 -41 -103q-41 -41 -98 -41q-59 0 -100 41z" />
    <glyph glyph-name="uni2757" unicode="&#x2757;" horiz-adv-x="789" 
d="M0 329q0 82 31 153.5t84.5 125.5t125.5 85t154 31t153.5 -31t125 -85t84.5 -125.5t31 -153.5t-31 -153.5t-84.5 -125.5t-125 -85t-153.5 -31t-154 31t-125.5 85t-84.5 125.5t-31 153.5zM333 579l6 -365q2 -15 16 -15h80q14 0 14 15l8 365q1 6 -4 11q-4 4 -11 4h-95
q-7 0 -10 -4q-4 -4 -4 -11zM336 66q0 -15 15 -15h89q5 0 10 4t5 11v86q0 6 -5 10.5t-10 4.5h-89q-15 0 -15 -15v-86z" />
    <glyph glyph-name="uni275B" unicode="&#x275b;" 
d="M911 -15h-335v335l335 334v-669zM353 -15h-335v335l335 334v-669z" />
    <glyph glyph-name="uni275C" unicode="&#x275c;" 
d="M18 654h335v-334l-335 -335v669zM576 654h335v-334l-335 -335v669z" />
    <glyph glyph-name="uni275D" unicode="&#x275d;" 
d="M911 -15h-335v335q0 139 98.5 236.5t236.5 97.5v-111q-93 0 -158 -65.5t-65 -157.5h223v-335zM353 -15h-335v335q0 139 98 236.5t237 97.5v-111q-93 0 -158 -65.5t-65 -157.5h223v-335z" />
    <glyph glyph-name="uni275E" unicode="&#x275e;" 
d="M18 654h335v-334q0 -140 -98.5 -237.5t-236.5 -97.5v111q92 0 157.5 65.5t65.5 158.5h-223v334zM576 654h335v-334q0 -140 -98 -237.5t-237 -97.5v111q92 0 157.5 65.5t65.5 158.5h-223v334z" />
    <glyph glyph-name="uni2795" unicode="&#x2795;" 
d="M464.5 766q184.5 0 315.5 -131t131 -315.5t-131 -315.5t-315.5 -131t-315.5 131t-131 315.5t131 315.5t315.5 131zM688 264v112h-167v167h-112v-167h-168v-112h168v-168h112v168h167z" />
    <glyph glyph-name="uni2796" unicode="&#x2796;" 
d="M464.5 766q184.5 0 315.5 -131t131 -315.5t-131 -315.5t-315.5 -131t-315.5 131t-131 315.5t131 315.5t315.5 131zM688 264v112h-447v-112h447z" />
    <glyph glyph-name="uni27A1" unicode="&#x27a1;" horiz-adv-x="1010" 
d="M756 50v161h-741v178h741v161l239 -250z" />
    <glyph glyph-name="uni27A2" unicode="&#x27a2;" horiz-adv-x="890" 
d="M863 717q6 -6 9 -12t2.5 -14.5t-2 -15.5t-7.5 -19.5t-12 -23.5l-16 -30l-18 -37q-54 -113 -147 -287l-158 -292l-65 -117l-54 380l-380 54q442 248 696 370l37 18l30 16q11 6 23.5 12t19.5 7.5t15.5 2t14.5 -2.5t12 -9zM772 619l-304 -279l28 -233z" />
    <glyph glyph-name="uni27A6" unicode="&#x27a6;" horiz-adv-x="930" 
d="M554 201q-81 0 -136.5 -4t-119 -18t-110 -39.5t-92 -70.5t-81.5 -109q2 10 6.5 27.5t23.5 68t43.5 96.5t69 102.5t97.5 97t131 68t168 27.5v193l361 -323l-361 -334v218z" />
    <glyph glyph-name="uni27F2" unicode="&#x27f2;" horiz-adv-x="970" 
d="M546 710q169 0 289 -120t120 -290t-120 -290t-289 -120q-140 0 -251 87l70 75q83 -60 181 -60q127 0 217 90.5t90 217.5t-90 217t-217 90q-124 0 -213 -86.5t-93 -210.5h143l-184 -205l-184 205h123q4 167 123 283.5t285 116.5z" />
    <glyph glyph-name="uni27F3" unicode="&#x27f3;" horiz-adv-x="705" 
d="M576 264h112q0 -139 -98 -236.5t-237 -97.5t-237 97.5t-98 237t98 237t237 97.5h66l-33 33l80 79l166 -168l-166 -168l-80 79l33 32l-66 2q-93 0 -158 -65.5t-65 -158t65 -158t157.5 -65.5t158 65.5t65.5 157.5z" />
    <glyph glyph-name="uni2935" unicode="&#x2935;" 
d="M799 264v-56h112l-223 -223l-224 223h112v56q0 116 -81.5 197.5t-197 81.5t-197.5 -81.5t-82 -197.5q0 162 114.5 276t276.5 114t276 -114t114 -276z" />
    <glyph glyph-name="uni2B05" unicode="&#x2b05;" horiz-adv-x="1010" 
d="M254 50l-239 250l239 250v-161h741v-178h-741v-161z" />
    <glyph glyph-name="uni2B06" unicode="&#x2b06;" horiz-adv-x="530" 
d="M515 551h-161v-741h-178v741h-161l250 239z" />
    <glyph glyph-name="uni2B07" unicode="&#x2b07;" horiz-adv-x="530" 
d="M515 49l-250 -239l-250 239h161v741h178v-741h161z" />
    <glyph glyph-name="uni2B0C" unicode="&#x2b0c;" horiz-adv-x="370" 
d="M241 208v-167h112l-167 -168l-168 168h112v167h111zM130 431v168h-112l168 167l167 -167h-112v-168h-111z" />
    <glyph glyph-name="uni2B0D" unicode="&#x2b0d;" 
d="M353 264h-167v-111l-168 167l168 168v-112h167v-112zM576 376h168v112l167 -168l-167 -167v111h-168v112z" />
    <glyph glyph-name="uni2ECF" unicode="&#x2ecf;" horiz-adv-x="789" 
d="M0 -30v102q0 15 10.5 25.5t25.5 10.5h718q14 0 24.5 -10.5t10.5 -25.5v-102q0 -15 -10.5 -25.5t-24.5 -10.5h-718q-15 0 -25.5 10.5t-10.5 25.5zM3 239q-9 23 8 39l358 359q11 11 25.5 11t25.5 -11l359 -359q17 -16 7 -39q-8 -22 -32 -22h-718q-24 0 -33 22z" />
    <glyph glyph-name="uniE003" unicode="&#xe003;" horiz-adv-x="1030" 
d="M365 350q21 0 35.5 -14.5t14.5 -35.5t-14.5 -35.5t-35.5 -14.5h-300q-21 0 -35.5 14.5t-14.5 35.5t14.5 35.5t35.5 14.5h300zM365 150q21 0 35.5 -14.5t14.5 -35.5t-14.5 -35.5t-35.5 -14.5h-300q-21 0 -35.5 14.5t-14.5 35.5t14.5 35.5t35.5 14.5h300zM985 350
q19 0 24.5 -12.5t5.5 -37.5q0 -17 -1.5 -26t-8.5 -16.5t-20 -7.5h-170v-170q0 -19 -12.5 -24.5t-37.5 -5.5q-17 0 -26 1.5t-16.5 8.5t-7.5 20v170h-165q-19 0 -24.5 12.5t-5.5 37.5q0 17 1.5 26t8.5 16.5t20 7.5h165v170q0 19 12.5 24.5t37.5 5.5q17 0 26 -1.5t16.5 -8.5
t7.5 -20v-170h170zM365 550q21 0 35.5 -14.5t14.5 -35.5t-14.5 -35.5t-35.5 -14.5h-300q-21 0 -35.5 14.5t-14.5 35.5t14.5 35.5t35.5 14.5h300z" />
    <glyph glyph-name="uniE048" unicode="&#xe048;" 
d="M464.5 766q184.5 0 315.5 -131t131 -315.5t-131 -315.5t-315.5 -131t-315.5 131t-131 315.5t131 315.5t315.5 131zM298 96l446 224l-446 223v-447z" />
    <glyph glyph-name="uniE4A1" unicode="&#xe4a1;" 
d="M464.5 -127q-184.5 0 -315.5 131t-131 315.5t131 315.5t315.5 131t315.5 -131t131 -315.5t-131 -315.5t-315.5 -131zM463 543l-222 -223l222 -222v166h225v112h-225v167z" />
    <glyph glyph-name="uniE4A2" unicode="&#xe4a2;" 
d="M464.5 766q184.5 0 315.5 -131t131 -315.5t-131 -315.5t-315.5 -131t-315.5 131t-131 315.5t131 315.5t315.5 131zM466 96l222 224l-222 222v-166h-225v-112h225v-168z" />
    <glyph glyph-name="uniE4A3" unicode="&#xe4a3;" 
d="M18 319.5q0 184.5 130 315.5t316 131q185 0 316 -131t131 -315.5t-131 -315.5t-315.5 -131t-315.5 131t-131 315.5zM688 321l-224 222l-222 -222h167v-225h112v225h167z" />
    <glyph glyph-name="uniE4A4" unicode="&#xe4a4;" 
d="M911 319.5q0 -184.5 -131 -315.5t-315.5 -131t-315.5 131t-131 315.5t131 315.5t315.5 131t315.5 -131t131 -315.5zM241 318l223 -222l222 222h-165v225h-112v-225h-168z" />
    <glyph glyph-name="uniE4AD" unicode="&#xe4ad;" horiz-adv-x="760" 
d="M394 -80l-379 380l379 380v-191h351v-378h-351v-191z" />
    <glyph glyph-name="uniE4AE" unicode="&#xe4ae;" horiz-adv-x="760" 
d="M366 680l379 -380l-379 -380v191h-351v378h351v191z" />
    <glyph glyph-name="uniE4AF" unicode="&#xe4af;" horiz-adv-x="790" 
d="M775 286h-191v-351h-378v351h-191l380 379z" />
    <glyph glyph-name="uniE4B0" unicode="&#xe4b0;" horiz-adv-x="790" 
d="M775 314l-380 -379l-380 379h191v351h378v-351h191z" />
    <glyph glyph-name="uniE700" unicode="&#xe700;" horiz-adv-x="1030" 
d="M634 78q89 -32 135 -65t46 -58v-105h-800v201q13 6 29.5 11.5t32 10t19.5 5.5q94 34 129.5 69t35.5 95q0 20 -10 31.5t-24 31.5t-21 58q-2 12 -9.5 17.5t-14.5 8t-14 17t-9 43.5q0 15 4.5 25.5t8.5 13.5l5 3q-9 50 -13 88q-2 21 5.5 47.5t27.5 55.5t63.5 48.5t104.5 19.5
t104.5 -19.5t63.5 -48.5t27.5 -55.5t5.5 -47.5l-13 -88q18 -8 18 -42q-2 -29 -9 -43.5t-14 -17t-14.5 -8t-9.5 -17.5q-7 -38 -21 -58t-24 -31.5t-10 -31.5q0 -60 35.5 -95t129.5 -69zM865 350h150v-100h-150v-150h-100v150h-150v100h150v150h100v-150z" />
    <glyph glyph-name="uniE701" unicode="&#xe701;" horiz-adv-x="413" 
d="M0.5 423.5q4.5 13.5 26.5 17.5l251 35l111 228q10 20 25 20v-667l-223 -118q-22 -10 -33.5 -1.5t-6.5 31.5l43 248l-181 177q-17 16 -12.5 29.5z" />
    <glyph glyph-name="uniE702" unicode="&#xe702;" horiz-adv-x="789" 
d="M0 329q0 82 31 153.5t84.5 125.5t125.5 85t154 31t153.5 -31t125 -85t84.5 -125.5t31 -153.5t-31 -153.5t-84.5 -125.5t-125 -85t-153.5 -31t-154 31t-125.5 85t-84.5 125.5t-31 153.5zM119 329q0 -57 21.5 -107.5t59 -88t88 -59t107.5 -21.5t107.5 21.5t88 59t59.5 88
t22 107.5t-22 107.5t-59.5 88.5t-88 59.5t-107.5 21.5t-107.5 -21.5t-88 -59.5t-59 -88.5t-21.5 -107.5zM164 304.5q0 8.5 5 13.5l56 56q6 5 14 5t15 -5l87 -88q14 -13 28 0l167 167q6 5 14.5 5t13.5 -5l56 -56q5 -5 5 -13.5t-5 -14.5l-202 -202q-6 -5 -15.5 -9.5
t-18.5 -4.5h-58q-8 0 -17.5 4.5t-15.5 9.5l-124 123q-5 6 -5 14.5z" />
    <glyph glyph-name="uniE703" unicode="&#xe703;" horiz-adv-x="789" 
d="M0 329q0 82 31 153.5t84.5 125.5t125.5 85t154 31t153.5 -31t125 -85t84.5 -125.5t31 -153.5t-31 -153.5t-84.5 -125.5t-125 -85t-153.5 -31t-154 31t-125.5 85t-84.5 125.5t-31 153.5zM119 329q0 -57 21.5 -107.5t59 -88t88 -59t107.5 -21.5t107.5 21.5t88 59t59.5 88
t22 107.5t-22 107.5t-59.5 88.5t-88 59.5t-107.5 21.5t-107.5 -21.5t-88 -59.5t-59 -88.5t-21.5 -107.5zM223 424.5q0 8.5 5 14.5l56 56q7 6 15 6t14 -6l82 -82l82 82q6 6 14.5 6t13.5 -6l56 -56q5 -6 5 -14.5t-5 -13.5l-82 -82l82 -82q13 -15 0 -29l-56 -55q-14 -13 -28 0
l-82 82l-82 -82q-6 -6 -14 -6t-15 6l-56 55q-12 14 0 29l84 82l-84 82q-5 5 -5 13.5z" />
    <glyph glyph-name="uniE704" unicode="&#xe704;" horiz-adv-x="950" 
d="M469 760q94 1 179.5 -34.5t148 -96t100 -145t38.5 -178.5t-34.5 -179.5t-96 -148t-145 -100t-178.5 -38.5t-179.5 34.5t-148 96t-100 145t-38.5 178.5t34.5 179.5t96 148t145 100t178.5 38.5zM535 84q1 31 -18 50t-50 20q-29 0 -48 -19t-20 -47q-1 -30 18 -48.5t50 -19.5
q29 0 48 18t20 46zM475 486q67 0 67 -66q0 -14 -11 -31.5t-24 -27.5q-3 -1 -16 -10.5t-33 -25.5t-31 -28q-16 -19 -18 -87h107q0 21 5 34q6 16 28 34l28 19q30 23 43.5 36t26 37.5t12.5 55.5q0 74 -53.5 114t-135.5 40q-84 0 -128 -46.5t-48 -130.5h111v5q0 28 16 53
q15 25 54 25z" />
    <glyph glyph-name="uniE705" unicode="&#xe705;" horiz-adv-x="950" 
d="M469 760q94 1 179.5 -34.5t148 -96t100 -145t38.5 -178.5t-34.5 -179.5t-96 -148t-145 -100t-178.5 -38.5t-179.5 34.5t-148 96t-100 145t-38.5 178.5t34.5 179.5t96 148t145 100t178.5 38.5zM520 607q-43 0 -65.5 -23.5t-22.5 -50.5q-1 -28 15.5 -43.5t48.5 -15.5
q38 0 61 21.5t23 52.5q0 59 -60 59zM400 12q30 0 84.5 27t105.5 78l-18 24q-46 -36 -72 -36q-12 0 -3 38l42 159q26 96 -21 96q-31 0 -91 -28.5t-115 -74.5l16 -26q17 11 42.5 22t33.5 11t0 -34l-37 -151q-27 -105 33 -105z" />
    <glyph glyph-name="uniE706" unicode="&#xe706;" horiz-adv-x="880" 
d="M765 490q41 0 70.5 -29.5t29.5 -70.5v-290q0 -41 -29.5 -70.5t-70.5 -29.5h-690v140h650v210h-500v-110l-210 180l210 180v-110h540z" />
    <glyph glyph-name="uniE707" unicode="&#xe707;" horiz-adv-x="880" 
d="M215 300v-90l-200 160l200 170v-100h550q41 0 70.5 -29.5t29.5 -70.5v-280h-140v240h-510z" />
    <glyph glyph-name="uniE708" unicode="&#xe708;" horiz-adv-x="705" 
d="M409 766q115 0 197 -81.5t82 -196.5v-447q0 -69 -49 -118.5t-118 -49.5h-336q-70 0 -118.5 49.5t-48.5 118.5v390h112v57q0 115 82 196.5t197 81.5zM241 488v-57h335v57q0 69 -48.5 117.5t-118 48.5t-119 -48.5t-49.5 -117.5zM521 -15q23 0 39 16t16 40v279h-446v-279
q0 -24 16 -40t39 -16h336zM409 153q0 -23 -16 -40t-40 -17q-23 0 -39 16.5t-16 40.5q0 23 15.5 39t39.5 16t40 -16t16 -39z" />
    <glyph glyph-name="uniE709" unicode="&#xe709;" horiz-adv-x="705" 
d="M409 766q115 0 197 -81.5t82 -196.5v-447q0 -69 -49 -118.5t-118 -49.5h-336q-70 0 -118.5 49.5t-48.5 118.5v390h558v57q0 69 -48.5 117.5t-118 48.5t-119 -48.5t-49.5 -117.5h-111q0 115 82 196.5t197 81.5zM521 -15q23 0 39 16t16 40v279h-446v-279q0 -24 16 -40
t39 -16h336zM409 153q0 -23 -16 -40t-40 -17q-23 0 -39 16.5t-16 40.5q0 23 15.5 39t39.5 16t40 -16t16 -39z" />
    <glyph glyph-name="uniE70A" unicode="&#xe70a;" 
d="M464.5 654q68.5 0 140 -34t124 -82.5t95 -96.5t64.5 -83l23 -34l-24 -37q-15 -23 -63 -81t-97 -103t-121.5 -81.5t-141 -36.5t-140 34.5t-124 84.5t-95.5 100.5t-64 85.5l-23 34q8 14 23 36t63 79t97.5 101t122 79t141 35zM464.5 96q92.5 0 158 65.5t65.5 158t-65.5 158
t-158 65.5t-158 -65.5t-65.5 -158t65.5 -158t158 -65.5zM353 319.5q0 111.5 111.5 111.5t111.5 -111.5t-111.5 -111.5t-111.5 111.5z" />
    <glyph glyph-name="uniE70B" unicode="&#xe70b;" horiz-adv-x="947" 
d="M0 328.5q0 22.5 13 42.5q40 64 91.5 115t111 86.5t124.5 54t134 18.5q27 0 54 -4t53 -9l45 81q5 8 13 10q6 3 15 -1l68 -39q7 -5 10 -12.5t-1 -15.5l-398 -710q-4 -8 -12 -10q-2 -1 -5 -1t-10 2l-69 39q-8 4 -10 12t2 16l34 59q-75 34 -138.5 91t-111.5 134
q-13 19 -13 41.5zM79 329q42 -67 98.5 -117.5t123.5 -81.5l30 54q-45 32 -71.5 81.5t-26.5 109.5q0 40 13 76.5t35 66.5q-60 -31 -111.5 -78.5t-90.5 -110.5zM316 375q0 -11 8.5 -20t21 -9t21 9t8.5 20q0 40 27 67.5t67 27.5q13 0 21.5 9t8.5 20q0 13 -8.5 21.5t-21.5 8.5
q-31 0 -59.5 -12t-49 -32.5t-32.5 -49t-12 -60.5zM477 13l45 82q107 13 196 74.5t150 159.5q-55 87 -134 145l39 71q47 -34 88 -77t75 -97q11 -20 11 -42.5t-11 -41.5q-82 -131 -201.5 -202t-257.5 -72zM556 155l146 262q2 -10 3 -20t1 -22q0 -38 -11 -72t-31 -62.5
t-48 -50.5t-60 -35z" />
    <glyph glyph-name="uniE70C" unicode="&#xe70c;" 
d="M389 766l522 -522h-371v-371l-522 522v371h371zM222 456q44 0 75.5 31t31.5 75t-31.5 75.5t-75.5 31.5t-75 -31.5t-31 -75.5t31 -75t75 -31z" />
    <glyph glyph-name="uniE70D" unicode="&#xe70d;" horiz-adv-x="945" 
d="M0 434v229q0 25 18 43t43 18h228q26 0 57 -12.5t48 -30.5l338 -377q16 -18 16.5 -43.5t-16.5 -43.5l-266 -264q-18 -18 -43 -18.5t-43 18.5l-337 377q-17 19 -30 49t-13 55zM99 566q0 -24 17.5 -41.5t41.5 -17.5t41.5 17.5t17.5 41.5t-17.5 41.5t-41.5 17.5t-41.5 -17.5
t-17.5 -41.5zM399 723h87q26 0 57 -13t48 -31l337 -376q17 -19 17.5 -44t-17.5 -43l-265 -264q-18 -18 -43 -18.5t-43 18.5l-6 7l258 258q18 18 17.5 43.5t-17.5 43.5l-336 377q-16 16 -43 28t-51 14z" />
    <glyph glyph-name="uniE70E" unicode="&#xe70e;" 
d="M344 526q0 -36 -25 -61t-61 -25t-60.5 25t-24.5 61t24.5 61t60.5 25t61 -25t25 -61zM18 766h371l522 -522h-370v-371l-523 523v370zM347 666h-229v-229l324 -324v231h229l-193 192z" />
    <glyph glyph-name="uniE70F" unicode="&#xe70f;" horiz-adv-x="947" 
d="M0 -7v672q0 24 17.5 41.5t41.5 17.5h829q25 0 42 -17.5t17 -41.5v-672q0 -24 -17 -41.5t-42 -17.5h-829q-24 0 -41.5 17.5t-17.5 41.5zM79 16h789v59h-789v-59zM79 523h789v119h-491l-8 -48h-290v-71zM137 624h162v47h-162v-47zM286 298q0 -39 15 -73t40 -59t59.5 -40
t73.5 -15t73 15t59.5 40t40 59t14.5 73t-14.5 73.5t-40 59.5t-59.5 40t-73 15t-73.5 -15t-59.5 -40t-40 -59.5t-15 -73.5zM345 298.5q0 26.5 10 50t27.5 41t41 27.5t50 10t50 -10t41 -27.5t27.5 -41t10 -50t-10 -50t-27.5 -41t-41 -27.5t-50 -10t-50 10t-41 27.5t-27.5 41
t-10 50zM382 298q0 -8 6.5 -14.5t14.5 -6.5q10 0 16 6.5t6 14.5q0 21 14.5 35t34.5 14v1q9 0 15.5 6.5t6.5 14.5q0 9 -6.5 15.5t-15.5 6.5q-38 0 -65 -27.5t-27 -65.5z" />
    <glyph glyph-name="uniE710" unicode="&#xe710;" 
d="M688 654q92 0 157.5 -65t65.5 -157.5t-65.5 -158t-157.5 -65.5h-167v-167h111l-168 -168l-166 168h111v167h-168q-92 0 -157.5 65.5t-65.5 158t65.5 157.5t157.5 65q11 0 30 -2q29 52 80.5 83t112.5 31q60 0 112.5 -31t81.5 -83q19 2 30 2zM688 320q45 0 78 33t33 78.5
t-33 78.5t-78.5 33t-78.5 -33t-33 -79h-112q0 109 90 178q-33 45 -90 45q-45 0 -78 -33t-33 -78q0 -21 7 -39l-104 -39q-15 36 -15 77q-44 -2 -77.5 -34t-33.5 -77t33 -78t78 -33h447z" />
    <glyph glyph-name="uniE711" unicode="&#xe711;" 
d="M688 654q92 0 157.5 -65t65.5 -157.5t-65.5 -158t-157.5 -65.5h-447q-92 0 -157.5 65.5t-65.5 158t65.5 157.5t157.5 65q11 0 30 -2q29 52 80.5 83t112.5 31q60 0 112.5 -31t81.5 -83q19 2 30 2zM688 320q45 0 78 33t33 78.5t-33 78.5t-78.5 33t-78.5 -33t-33 -79h-112
q0 109 90 178q-33 45 -90 45q-45 0 -78 -33t-33 -78q0 -21 7 -39l-104 -39q-15 36 -15 77q-44 -2 -77.5 -34t-33.5 -77t33 -78t78 -33h447zM521 41v-168h-112v168h-111l166 167l168 -167h-111z" />
    <glyph glyph-name="uniE712" unicode="&#xe712;" horiz-adv-x="930" 
d="M915 -40q-36 64 -81.5 109t-92 70.5t-110 39.5t-119 18t-136.5 4v-218l-361 334l361 323v-193q70 0 133.5 -16.5t111.5 -45t89.5 -65t71 -77t53 -80.5t38.5 -76.5t24.5 -65t13.5 -45.5z" />
    <glyph glyph-name="uniE713" unicode="&#xe713;" horiz-adv-x="1030" 
d="M376 506l-211 -189l211 -195v-139l-361 334l361 323v-134zM626 447q59 0 110.5 -16.5t88 -45t66.5 -65t49.5 -77t34 -80.5t22 -76.5t12 -65t5.5 -45.5l1 -16q-37 65 -73 109t-69 70t-75 40t-79.5 18t-92.5 4v-218l-361 334l361 323v-193z" />
    <glyph glyph-name="uniE714" unicode="&#xe714;" horiz-adv-x="1030" 
d="M396 587q14 -13 14 -31.5t-14 -31.5l-248 -224l248 -224q14 -13 14 -31.5t-14 -31.5t-31 -13t-31 13l-319 287l319 287q14 13 31 13t31 -13zM696 587l319 -287l-319 -287q-14 -13 -31 -13t-31 13q-13 13 -13 31.5t14 31.5l247 224l-247 224q-14 13 -14 31.5t13 31.5
q14 13 31 13t31 -13z" />
    <glyph glyph-name="uniE715" unicode="&#xe715;" horiz-adv-x="1030" 
d="M765 10v55l100 82v-187q0 -21 -14.5 -35.5t-35.5 -14.5h-750q-21 0 -35.5 14.5t-14.5 35.5v550q0 21 14.5 35.5t35.5 14.5h288q-33 -24 -60 -49t-37 -38l-11 -13h-130v-450h650zM683 357q-114 0 -179 -17t-115 -63t-109 -142q0 8 1 22.5t9 56t21.5 79t44 83.5t71 79
t107.5 55.5t149 22.5v157l332 -250l-332 -260v177z" />
    <glyph glyph-name="uniE716" unicode="&#xe716;" horiz-adv-x="1010" 
d="M80 475q-13 0 -18 7.5t-2 16t10 11.5q182 65 200 65h45v150h380v-150h45q18 0 200 -65q7 -3 10 -11.5t-2 -16t-18 -7.5h-850zM940 420q21 0 38 -19.5t17 -40.5v-175q0 -21 -17 -40.5t-38 -19.5h-99l44 -250h-760l44 250h-99q-21 0 -38 19.5t-17 40.5v175q0 21 17 40.5
t38 19.5h870zM225 -25h560l-70 325h-420z" />
    <glyph glyph-name="uniE717" unicode="&#xe717;" horiz-adv-x="1030" 
d="M275 140h222l128 -140h-390q-41 0 -70.5 29.5t-29.5 70.5v300h-120l190 200l190 -200h-120v-260zM895 200h120l-190 -200l-190 200h120v260h-222l-128 140h390q41 0 70.5 -29.5t29.5 -70.5v-300z" />
    <glyph glyph-name="uniE718" unicode="&#xe718;" 
d="M576 599h-278q-70 0 -119 -49t-49 -119v-278q0 -58 44 -90q68 90 179 90h223q92 0 157.5 65.5t65.5 157.5t-65.5 157.5t-157.5 65.5zM576 711q139 0 237 -98.5t98 -236.5t-98 -236.5t-237 -98.5h-223q-46 0 -79 -33t-33 -78q-92 0 -157.5 65t-65.5 158v278
q0 115 82 197.5t198 82.5h278z" />
    <glyph glyph-name="uniE719" unicode="&#xe719;" 
d="M18 153v278q0 115 82 197.5t198 82.5h278q139 0 237 -98.5t98 -236.5t-98 -236.5t-237 -98.5h-223q-46 0 -79 -33t-33 -78q-92 0 -157.5 65t-65.5 158z" />
    <glyph glyph-name="uniE71A" unicode="&#xe71a;" 
d="M464 543q-260 0 -316 -137q-44 -103 9 -247q46 31 97 40t155 9h370q20 64 20 112t-9.5 81.5t-40.5 69t-102.5 54t-182.5 18.5zM464 654q74 0 134 -7.5t120 -30t100.5 -58.5t66.5 -96.5t26 -141.5q0 -50 -14.5 -105.5t-28.5 -86.5l-15 -32h-444q-126 0 -160.5 -13.5
t-118.5 -97.5q-26 25 -50.5 72.5t-41 109t-21 128.5t18.5 131t69 115t138.5 82t220.5 31z" />
    <glyph glyph-name="uniE71B" unicode="&#xe71b;" 
d="M853 96h-444q-126 0 -160.5 -13.5t-118.5 -97.5q-26 25 -50.5 72.5t-41 109t-21 128.5t18.5 131t69 115t138.5 82t220.5 31q74 0 134 -7.5t120 -30t100.5 -58.5t66.5 -96.5t26 -141.5q0 -50 -14.5 -105.5t-28.5 -86.5z" />
    <glyph glyph-name="uniE71C" unicode="&#xe71c;" horiz-adv-x="817" 
d="M409 654q-115 0 -197 -81.5t-82 -196.5q0 -114 80 -197l32 -32v-46v-19l28 18q18 11 26 17l47 -12q34 -9 66 -9q115 0 197 82.5t82 197.5t-82 196.5t-197 81.5zM409 766q162 0 276 -114t114 -276t-114 -276.5t-276 -114.5q-42 0 -92 12l-187 -124l1 228
q-113 115 -113 275q0 162 114.5 276t276.5 114z" />
    <glyph glyph-name="uniE71D" unicode="&#xe71d;" horiz-adv-x="817" 
d="M409 766q162 0 276 -114t114 -276t-114 -276.5t-276 -114.5q-42 0 -92 12l-187 -124l1 228q-113 115 -113 275q0 162 114.5 276t276.5 114z" />
    <glyph glyph-name="uniE720" unicode="&#xe720;" 
d="M743 425q74 -14 121 -67.5t47 -149.5q0 -113 -65 -168t-158 -55h-112q-46 0 -79 -33t-33 -79q-92 0 -157.5 65.5t-65.5 157.5v112q0 29 6 56h106q2 0 4.5 -1t4.5 -1q-9 -23 -9 -54v-112q0 -56 44 -88q67 88 179 88h112q111 0 111 112q0 96 -80 109q21 48 24 108zM464 654
h-223q-39 0 -64 -11t-34 -33t-11 -35t-2 -32q0 -112 111 -112h112q111 0 179 -89q44 33 44 89v112q0 65 -34 88t-78 23zM464 766q92 0 158 -57.5t66 -165.5v-112q0 -92 -65.5 -157.5t-158.5 -65.5q0 46 -33 79t-78 33h-112q-93 0 -158 55t-65 168q0 114 65 168.5t158 54.5
h223z" />
    <glyph glyph-name="uniE721" unicode="&#xe721;" 
d="M688 431q0 -92 -65.5 -157.5t-158.5 -65.5q0 46 -33 79t-78 33h-112q-93 0 -158 55t-65 168q0 114 65 168.5t158 54.5h223q92 0 158 -57.5t66 -165.5v-112zM353 431zM353 431zM743 425q74 -14 121 -67.5t47 -149.5q0 -113 -65 -168t-158 -55h-112q-46 0 -79 -33t-33 -79
q-92 0 -157.5 65.5t-65.5 157.5v112q0 29 6 56h106q24 0 40 -16.5t16 -39.5v-55h55q113 0 194.5 79t84.5 193z" />
    <glyph glyph-name="uniE722" unicode="&#xe722;" horiz-adv-x="1030" 
d="M915 700q41 0 70.5 -29.5t29.5 -70.5v-600q0 -41 -29.5 -70.5t-70.5 -29.5h-800q-41 0 -70.5 29.5t-29.5 70.5v600q0 41 29.5 70.5t70.5 29.5h800zM915 0v600h-800v-600h800zM465 195v-90h-250v90h250zM465 345v-90h-250v90h250zM465 495v-90h-250v90h250zM810 175
q2 0 3.5 -17.5t1.5 -35.5v-17h-250q0 70 5 70q10 2 24 7t37.5 22t23.5 37q0 16 -13.5 34.5t-27.5 45.5t-14 64q0 55 20.5 82.5t69.5 27.5t69.5 -27.5t20.5 -82.5q0 -37 -14 -64t-27.5 -45.5t-13.5 -34.5q0 -20 21.5 -36.5t42.5 -22.5z" />
    <glyph glyph-name="uniE723" unicode="&#xe723;" horiz-adv-x="1030" 
d="M440 750q8 0 14 -6t6 -14v-860q0 -8 -6 -14t-14 -6h-45q-8 0 -14 6t-6 14v440h-177q-28 0 -54 17l-119 81q-10 7 -10 17t10 17l119 81q26 17 54 17h177v190q0 8 6 14t14 6h45zM1005 542q10 -7 10 -17t-10 -17l-119 -81q-26 -17 -54 -17h-302l-40 230h342q28 0 54 -17z
" />
    <glyph glyph-name="uniE724" unicode="&#xe724;" horiz-adv-x="594" 
d="M494.5 684.5q81.5 -81.5 81.5 -197.5t-82 -197l-21 -22q-13 -14 -47.5 -60t-60 -92t-47.5 -113t-22 -130q0 63 -20 129t-49 115t-58 90t-49 62l-20 21q-82 81 -82 197t81.5 197.5t197.5 81.5t197.5 -81.5zM296 376q47 0 80 33t33 78.5t-33 78.5t-80 33q-45 0 -77.5 -33
t-32.5 -78.5t32.5 -78.5t77.5 -33z" />
    <glyph glyph-name="uniE725" unicode="&#xe725;" horiz-adv-x="594" 
d="M464 488q0 68 -49.5 117t-118.5 49t-117.5 -49t-48.5 -117q0 -70 49 -119q61 -61 117 -151q54 86 120 152q48 48 48 118zM296 766q117 0 198.5 -81.5t81.5 -197.5t-82 -197l-21 -22q-13 -14 -47.5 -60t-60 -92t-47.5 -113t-22 -130q0 63 -20 129t-49 115t-58 90t-49 62
l-20 21q-82 81 -82 197t81.5 197.5t196.5 81.5zM353 488q0 -24 -17 -40.5t-40 -16.5q-25 0 -40 16.5t-15 40.5t15 39.5t40 15.5q24 0 40.5 -16.5t16.5 -38.5z" />
    <glyph glyph-name="uniE726" unicode="&#xe726;" horiz-adv-x="482" 
d="M241.5 766q92.5 0 157.5 -65.5t65 -157.5q0 -55 -55.5 -222.5t-110.5 -308.5l-57 -139l-62 155q-37 95 -99 277.5t-62 237.5q0 92 65.5 157.5t158 65.5zM241.5 431q45.5 0 78.5 33t33 78.5t-33 78.5t-78.5 33t-78.5 -33t-33 -78.5t33 -78.5t78.5 -33z" />
    <glyph glyph-name="uniE727" unicode="&#xe727;" horiz-adv-x="1030" 
d="M1015 -66q0 -13 -9.5 -23.5t-23.5 -10.5q-9 0 -17 5l-216 136l-217 -136q-17 -10 -34 0l-217 136l-216 -136q-18 -11 -34 0.5t-16 28.5v585q0 20 16 30l234 146q17 10 33 0l217 -136l217 136q16 10 33 0l234 -146q16 -10 16 -30v-585zM249 100v505l-169 -105v-506z
M482 -6v506l-168 105v-505zM716 100v505l-168 -105v-506zM950 -6v506l-169 105v-505z" />
    <glyph glyph-name="uniE728" unicode="&#xe728;" 
d="M464 654q-138 0 -236 -97.5t-98 -237t98 -237t236 -97.5t236.5 97.5t98.5 237t-98.5 237t-236.5 97.5zM464.5 766q184.5 0 315.5 -131t131 -315.5t-131 -315.5t-315.5 -131t-315.5 131t-131 315.5t131 315.5t315.5 131zM524.5 378.5q-33.5 33.5 -79.5 21.5l243 143
l-144 -246q14 48 -19.5 81.5zM406 261q34 -35 81 -21l-246 -144l144 244q-12 -47 21 -79z" />
    <glyph glyph-name="uniE729" unicode="&#xe729;" 
d="M688 654h223v-111h-112v-502q0 -69 -48.5 -118.5t-118.5 -49.5h-334q-70 0 -119 49.5t-49 118.5v502h-112v111h223q0 46 33 79t79 33h223q46 0 79 -33t33 -79zM353 96q24 0 40 17t16 40t-16 39t-40 16t-39.5 -16t-15.5 -39q0 -24 16 -40.5t39 -16.5zM353 320
q24 0 40 16.5t16 39.5t-16 39t-40 16t-39.5 -16t-15.5 -39q0 -24 16 -40t39 -16zM576 96q24 0 40 17t16 40t-16 39t-40 16t-39.5 -16t-15.5 -39q0 -24 16 -40.5t39 -16.5zM576 320q24 0 40 16.5t16 39.5t-16 39t-40 16t-39.5 -16t-15.5 -39q0 -24 16 -40t39 -16z" />
    <glyph glyph-name="uniE72A" unicode="&#xe72a;" 
d="M911 654v-111h-112v-502q0 -69 -48.5 -118.5t-118.5 -49.5h-334q-70 0 -119 49.5t-49 118.5v502h-112v111h223q0 46 33 79t79 33h223q46 0 79 -33t33 -79h223zM688 41v502h-447v-502q0 -24 16.5 -40t40.5 -16h334q23 0 39.5 16t16.5 40zM298 153q0 55 55 55q56 0 56 -55
q0 -57 -56 -57q-55 0 -55 57zM298 376q0 55 55 55q56 0 56 -55q0 -56 -56 -56q-55 0 -55 56zM521 153q0 55 55 55q56 0 56 -55q0 -57 -56 -57q-55 0 -55 57zM521 376q0 55 55 55q56 0 56 -55q0 -56 -56 -56q-55 0 -55 56z" />
    <glyph glyph-name="uniE730" unicode="&#xe730;" horiz-adv-x="705" 
d="M409 766l279 -278v-615h-670v893h391zM130 -15h446v446h-223v223h-223v-669z" />
    <glyph glyph-name="uniE731" unicode="&#xe731;" horiz-adv-x="705" 
d="M409 766l279 -278v-615h-670v893h391zM350 431h224l-224 223v-223z" />
    <glyph glyph-name="uniE732" unicode="&#xe732;" 
d="M632 766l279 -278v-615l-221 185l-223 -185l-225 185l-224 -184v892h614zM800 99v223h-336v335h-334v-558l114 89l223 -184l223 185zM576 434h224l-111 110l-113 113v-223z" />
    <glyph glyph-name="uniE733" unicode="&#xe733;" 
d="M622 766l289 -287v-606l-223 185l-224 -185l-223 185l-223 -185v893h604zM521 376h278l-278 278v-278z" />
    <glyph glyph-name="uniE734" unicode="&#xe734;" 
d="M911 654h-893v112h893v-112zM576 431h-558v112h558v-112zM911 96h-893v112h893v-112zM688 -127h-670v112h670v-112zM911 -70q0 -24 -16.5 -40.5t-39 -16.5t-39.5 17t-17 39.5t16.5 39t40.5 16.5q22 0 38.5 -16.5t16.5 -38.5z" />
    <glyph glyph-name="uniE735" unicode="&#xe735;" 
d="M911 654h-893v112h893v-112zM576 431h-558v112h558v-112zM911 206h-893v111h893v-111zM18 -70q0 55 56 55t56 -55q0 -57 -56 -57t-56 57zM298 -15q22 0 38.5 -16.5t16.5 -39t-16.5 -39.5t-38.5 -17q-24 0 -40.5 17t-16.5 39.5t16.5 39t40.5 16.5zM464 -70q0 55 57 55
q55 0 55 -55q0 -57 -55 -57q-57 0 -57 57z" />
    <glyph glyph-name="uniE736" unicode="&#xe736;" horiz-adv-x="730" 
d="M665 550q21 0 35.5 -14.5t14.5 -35.5v-600q0 -21 -14.5 -35.5t-35.5 -14.5h-400q-21 0 -35.5 14.5t-14.5 35.5v150h-150q-21 0 -35.5 14.5t-14.5 35.5v600q0 21 14.5 35.5t35.5 14.5h400q21 0 35.5 -14.5t14.5 -35.5v-150h150zM115 150h100v351q0 21 14 35t35 14h151v100
h-300v-500zM615 -50v500h-300v-500h300z" />
    <glyph glyph-name="uniE737" unicode="&#xe737;" horiz-adv-x="1030" 
d="M15 550q0 41 29.5 70.5t70.5 29.5h800q41 0 70.5 -29.5t29.5 -70.5v-500q0 -41 -29.5 -70.5t-70.5 -29.5h-800q-41 0 -70.5 29.5t-29.5 70.5v500zM915 550h-800v-500h800v500z" />
    <glyph glyph-name="uniE738" unicode="&#xe738;" horiz-adv-x="1010" 
d="M853 550v-50h-696v50q0 22 12.5 34.5t24.5 13.5l12 2h598q2 0 5.5 -0.5t11.5 -3t14.5 -7t12 -15t5.5 -24.5zM704 700q2 0 5.5 -0.5t12 -3t15 -7t12 -15t5.5 -24.5h-498q0 22 12.5 34.5t25.5 13.5l12 2h398zM953 500l13 -13q10 -9 13 -12.5t8.5 -12t6.5 -16t1 -19.5
t-3 -27l-22 -126l-36 -208q-19 -109 -20 -116q-4 -23 -19 -35.5t-29 -13.5l-13 -1h-696q-6 0 -15 1t-25.5 13.5t-20.5 35.5q-1 7 -20 116l-36 208l-22 126q-3 15 -3 27t1 19.5t6.5 16t8.5 12t13 12.5l13 13l30 30v-80h836v80zM704 230v100h-70v-80h-258v80h-70v-100
q0 -2 0.5 -5.5t3 -12t7 -15t15 -12t24.5 -5.5h298q22 0 34.5 12.5t13.5 25.5z" />
    <glyph glyph-name="uniE73A" unicode="&#xe73a;" 
d="M784 -127q0 208 -103 384.5t-279 279t-384 102.5v127q181 0 346.5 -71t285 -190t190.5 -285t71 -347h-127zM528 -127q0 211 -150 360.5t-360 149.5v129q173 0 320 -86t232.5 -233t85.5 -320h-128zM274 -127q0 106 -75 181t-181 75v127q158 0 270.5 -112t112.5 -271h-127z
M145 -127h-127v127q53 0 90 -37t37 -90z" />
    <glyph glyph-name="uniE73B" unicode="&#xe73b;" 
d="M18 -15.5q0 111.5 111.5 111.5t111.5 -111.5t-111.5 -111.5t-111.5 111.5zM354 40q0 68 -50 118t-118 50v112q116 0 197 -82q83 -85 83 -198h-112zM185 431v112q144 0 258 -71t177 -180q68 -116 68 -252h-112q0 112 -54.5 201t-139.5 139q-89 51 -197 51zM185 654v112
q153 0 286.5 -59.5t227 -153t153 -226.5t59.5 -287h-112q0 130 -50.5 242.5t-129.5 192t-192 129.5t-242 50z" />
    <glyph glyph-name="uniE73C" unicode="&#xe73c;" 
d="M799 96q46 0 79 -33t33 -78.5t-33 -78.5t-78.5 -33t-78.5 33t-33 79q0 18 8 39l-169 122q-49 -50 -118 -50t-118.5 49.5t-49.5 118.5q0 9 3 26l-134 44q-16 -14 -36 -14q-24 0 -40 16.5t-16 39.5t16 39t40 16q20 0 34 -12.5t19 -31.5l135 -45q21 41 60.5 65t86.5 24
q52 0 96 -31l199 199q-16 30 -16 55q0 46 33 79t78.5 33t78.5 -33t33 -78.5t-33 -78.5t-79 -33q-26 0 -55 17l-199 -200q31 -44 31 -96q0 -37 -17 -73l169 -121q33 26 71 26z" />
    <glyph glyph-name="uniE73D" unicode="&#xe73d;" horiz-adv-x="890" 
d="M851 617q28 -24 23 -60l-97 -649q-4 -12 -15 -20t-24 -8h-586q-13 0 -24 8t-15 20l-97 649q-5 36 23 60q7 7 55 43t55 43q20 17 55 17h482q35 0 55 -17q7 -7 55 -43t55 -43zM445 182q38 0 70.5 16.5t53.5 46t36 57.5t24.5 65t13 54.5t6.5 37.5h-91q-38 -187 -113 -187
t-113 187h-91q3 -20 6.5 -37.5t13 -54.5t24.5 -65t36 -57.5t53.5 -46t70.5 -16.5zM93 550h704l-110 115h-484z" />
    <glyph glyph-name="uniE73E" unicode="&#xe73e;" 
d="M744 654h167v-781h-893v781h168v-56q0 -46 33 -79t78.5 -33t78.5 33t33 79v56h112v-56q0 -46 33 -79t78.5 -33t78.5 33t33 79v56zM298 -15v111h-112v-111h112zM298 208v112h-112v-112h112zM521 -15v111h-112v-111h112zM521 208v112h-112v-112h112zM632 -15l112 111h-112
v-111zM744 208v112h-112v-112h112zM241 599v112q0 23 16.5 39t40.5 16t39.5 -15.5t15.5 -39.5v-112q0 -24 -16.5 -40t-38.5 -16q-24 0 -40.5 16.5t-16.5 39.5zM576 599v112q0 23 16 39t40 16q23 0 39.5 -15.5t16.5 -39.5v-112q0 -24 -16.5 -40t-39 -16t-39.5 16.5t-17 39.5z
" />
    <glyph glyph-name="uniE740" unicode="&#xe740;" horiz-adv-x="868" 
d="M0 234v190q0 17 11.5 28t28.5 11h220v150q0 21 19 30q20 7 35 -8l284 -284q8 -9 8 -22.5t-8 -21.5l-284 -284q-10 -10 -22 -10q-5 0 -13 2q-19 9 -19 30v149h-220q-17 0 -28.5 11.5t-11.5 28.5zM474 -66v99h237q24 0 41 17.5t17 41.5v474q0 24 -17 41.5t-41 17.5h-237v99
h237q32 0 60.5 -13t50 -34t34 -50t12.5 -61v-474q0 -33 -12.5 -61t-34 -50t-50 -34.5t-60.5 -12.5h-237z" />
    <glyph glyph-name="uniE741" unicode="&#xe741;" horiz-adv-x="868" 
d="M0 92v474q0 32 12.5 60.5t34 50t50 34.5t61.5 13h237v-99h-237q-24 0 -41.5 -17.5t-17.5 -41.5v-474q0 -24 17.5 -41.5t41.5 -17.5h237v-99h-237q-33 0 -61.5 12.5t-50 34.5t-34 50t-12.5 61zM261 234v190q0 17 11.5 28t28.5 11h220v150q0 21 20 30q20 7 34 -8l284 -284
q9 -9 9 -22.5t-9 -21.5l-284 -284q-10 -10 -22 -10q-6 0 -12 2q-20 9 -20 30v149h-220q-17 0 -28.5 11.5t-11.5 28.5z" />
    <glyph glyph-name="uniE742" unicode="&#xe742;" horiz-adv-x="927" 
d="M912 127q0 -33 -23.5 -56.5t-56.5 -23.5h-780q-33 0 -36.5 12t24.5 29l803 453q29 17 49 5.5t20 -44.5v-375z" />
    <glyph glyph-name="uniE744" unicode="&#xe744;" 
d="M784 80l127 128v-335h-335l128 129l-128 127l79 79zM353 766l-129 -127l128 -127l-80 -80l-126 128l-128 -129v335h335zM353 129l-129 -127l129 -129h-335v335l128 -128l128 128zM911 766v-335l-127 129l-128 -128l-79 80l127 127l-128 127h335z" />
    <glyph glyph-name="uniE745" unicode="&#xe745;" 
d="M839 24l72 72v-223h-223l72 72l-184 184l79 79zM90 615l-72 -72v223h223l-72 -72l184 -184l-79 -79zM760 694l-72 72h223v-223l-72 72l-184 -184l-79 79zM353 129l-184 -184l72 -72h-223v223l72 -72l184 184z" />
    <glyph glyph-name="uniE746" unicode="&#xe746;" 
d="M704 2l-128 -129v335h335l-127 -128l127 -128l-79 -79zM18 431l128 129l-127 126l79 79l126 -126l129 127v-335h-335zM18 -48l128 128l-128 128h335v-335l-129 129l-127 -129zM576 431v335l128 -127l128 126l78 -79l-126 -126l127 -129h-335z" />
    <glyph glyph-name="uniE747" unicode="&#xe747;" 
d="M648 57l-72 -72v223h223l-72 -72l184 -184l-79 -79zM200 504l-182 183l79 79l183 -182l73 70l-1 -222l-222 -1zM18 -48l184 184l-72 72h223v-223l-72 72l-184 -184zM800 431h-224v225l73 -72l183 182l79 -79l-183 -183z" />
    <glyph glyph-name="uniE74A" unicode="&#xe74a;" 
d="M521 208v-167h111l-168 -168l-166 168h111v167h112zM409 431v168h-111l166 167l168 -167h-111v-168h-112zM353 264h-167v-111l-168 167l168 168v-112h167v-112zM576 376h168v112l167 -168l-167 -167v111h-168v112z" />
    <glyph glyph-name="uniE74C" unicode="&#xe74c;" 
d="M911 766v-670h-223v-223h-670v670h223v223h670zM576 -15v111h-335v224h-111v-335h446zM799 208v335h-446v-335h446z" />
    <glyph glyph-name="uniE74D" unicode="&#xe74d;" horiz-adv-x="1030" 
d="M915 750q41 0 70.5 -29.5t29.5 -70.5v-600q0 -41 -29.5 -70t-70.5 -29h-199v98h200v461h-802v-461h200v-98h-199q-41 0 -70.5 29t-29.5 70v600q0 41 29.5 70.5t70.5 29.5h800zM145 583q16 0 26.5 11t10.5 26t-10.5 25.5t-26.5 10.5t-26.5 -10.5t-10.5 -25.5t10.5 -26
t26.5 -11zM245 583q16 0 26.5 11t10.5 26t-10.5 25.5t-26.5 10.5t-26.5 -10.5t-10.5 -25.5t10.5 -26t26.5 -11zM916 589v62h-602v-62h602zM512 391l243 -241h-150v-300h-185v300h-150z" />
    <glyph glyph-name="uniE74E" unicode="&#xe74e;" horiz-adv-x="1030" 
d="M915 700q41 0 70.5 -29.5t29.5 -70.5v-600q0 -41 -29.5 -70.5t-70.5 -29.5h-800q-41 0 -70.5 29.5t-29.5 70.5v600q0 41 29.5 70.5t70.5 29.5h800zM245 606q-16 0 -26.5 -10.5t-10.5 -25.5t10.5 -26t26.5 -11t26.5 11t10.5 26t-10.5 25.5t-26.5 10.5zM108 570
q0 -15 10.5 -26t26.5 -11t26.5 11t10.5 26t-10.5 25.5t-26.5 10.5t-26.5 -10.5t-10.5 -25.5zM916 0v460h-802v-460h802zM916 540v60h-601v-60h601z" />
    <glyph glyph-name="uniE74F" unicode="&#xe74f;" horiz-adv-x="490" 
d="M245 800l230 -365h-460zM245 -200l-230 365h460z" />
    <glyph glyph-name="uniE750" unicode="&#xe750;" horiz-adv-x="789" 
d="M0 394.5q0 68.5 26 128.5t70.5 104.5t104.5 70.5t128 26t128 -26t104.5 -70.5t70.5 -104.5t26 -129q0 -50 -14.5 -95.5t-40.5 -85.5l177 -176q9 -10 9 -24t-9 -23l-46 -46q-10 -10 -23.5 -10t-23.5 10l-176 177q-40 -27 -85.5 -41t-96.5 -14q-68 0 -128 25.5t-104.5 70.5
t-70.5 104.5t-26 128zM132 394q0 -41 15 -76.5t42 -62.5t63 -42.5t77.5 -15.5t77 15.5t62.5 42.5t42 62.5t15 76.5t-15 77t-42 63t-62.5 42.5t-77 15.5t-77.5 -15.5t-63 -42.5t-42 -63t-15 -77zM198 378v33q0 7 4.5 12t11.5 5h82v82q0 6 4.5 11t12.5 5h32q8 0 12.5 -5
t4.5 -11v-82h82q17 0 17 -17v-33q0 -16 -17 -16h-82v-83q0 -16 -17 -16h-32q-17 0 -17 16v83h-82q-7 0 -11.5 4.5t-4.5 11.5z" />
    <glyph glyph-name="uniE751" unicode="&#xe751;" horiz-adv-x="789" 
d="M0 394.5q0 68.5 26 128.5t70.5 104.5t104.5 70.5t128 26t128 -26t104.5 -70.5t70.5 -104.5t26 -129q0 -50 -14.5 -95.5t-40.5 -85.5l177 -176q9 -10 9 -24t-9 -23l-46 -46q-10 -10 -23.5 -10t-23.5 10l-176 177q-40 -27 -85.5 -41t-96.5 -14q-68 0 -128 25.5t-104.5 70.5
t-70.5 104.5t-26 128zM132 394q0 -41 15 -76.5t42 -62.5t63 -42.5t77.5 -15.5t77 15.5t62.5 42.5t42 62.5t15 76.5t-15 77t-42 63t-62.5 42.5t-77 15.5t-77.5 -15.5t-63 -42.5t-42 -63t-15 -77zM198 378v33q0 7 4.5 12t11.5 5h230q17 0 17 -17v-33q0 -16 -17 -16h-230
q-7 0 -11.5 4.5t-4.5 11.5z" />
    <glyph glyph-name="uniE758" unicode="&#xe758;" horiz-adv-x="950" 
d="M475 760q125 0 231 -61.5t167.5 -167.5t61.5 -231t-61.5 -231t-167.5 -167.5t-231 -61.5t-231 61.5t-167.5 167.5t-61.5 231t61.5 231t167.5 167.5t231 61.5zM475 -60q149 0 254.5 105.5t105.5 254.5t-105.5 254.5t-254.5 105.5t-254.5 -105.5t-105.5 -254.5
t105.5 -254.5t254.5 -105.5zM565 492v-204h113l-203 -191l-202 191h112v204h180z" />
    <glyph glyph-name="uniE759" unicode="&#xe759;" horiz-adv-x="950" 
d="M935 300q0 -125 -61.5 -231t-167.5 -167.5t-231 -61.5t-231 61.5t-167.5 167.5t-61.5 231t61.5 231t167.5 167.5t231 61.5t231 -61.5t167.5 -167.5t61.5 -231zM115 300q0 -149 105.5 -254.5t254.5 -105.5t254.5 105.5t105.5 254.5t-105.5 254.5t-254.5 105.5
t-254.5 -105.5t-105.5 -254.5zM668 210h-205v-113l-191 203l191 202v-112h205v-180z" />
    <glyph glyph-name="uniE75A" unicode="&#xe75a;" horiz-adv-x="950" 
d="M15 300q0 125 61.5 231t167.5 167.5t231 61.5t231 -61.5t167.5 -167.5t61.5 -231t-61.5 -231t-167.5 -167.5t-231 -61.5t-231 61.5t-167.5 167.5t-61.5 231zM835 300q0 149 -105.5 254.5t-254.5 105.5t-254.5 -105.5t-105.5 -254.5t105.5 -254.5t254.5 -105.5
t254.5 105.5t105.5 254.5zM282 390h205v112l191 -202l-191 -203v113h-205v180z" />
    <glyph glyph-name="uniE75B" unicode="&#xe75b;" horiz-adv-x="950" 
d="M475 -160q-125 0 -231 61.5t-167.5 167.5t-61.5 231t61.5 231t167.5 167.5t231 61.5t231 -61.5t167.5 -167.5t61.5 -231t-61.5 -231t-167.5 -167.5t-231 -61.5zM475 660q-149 0 -254.5 -105.5t-105.5 -254.5t105.5 -254.5t254.5 -105.5t254.5 105.5t105.5 254.5
t-105.5 254.5t-254.5 105.5zM385 107v205h-112l202 190l203 -190h-113v-205h-180z" />
    <glyph glyph-name="uniE75C" unicode="&#xe75c;" horiz-adv-x="610" 
d="M579 372l-235 -225q-17 -17 -39 -17t-39 17q-215 204 -235 225q-15 16 -15.5 40t15.5 41q37 37 79 0l195 -188l195 188q42 37 79 0q16 -17 15.5 -41t-15.5 -40z" />
    <glyph glyph-name="uniE75D" unicode="&#xe75d;" horiz-adv-x="370" 
d="M257 574q16 15 40 15.5t41 -15.5q37 -37 0 -79l-188 -195l188 -195q37 -42 0 -79q-17 -16 -41 -15.5t-40 15.5l-225 235q-17 17 -17 39t17 39q204 215 225 235z" />
    <glyph glyph-name="uniE75E" unicode="&#xe75e;" horiz-adv-x="370" 
d="M113 574l225 -235q17 -17 17 -39t-17 -39q-204 -215 -225 -235q-16 -15 -40 -15.5t-41 15.5q-37 37 0 79l188 195l-188 195q-37 42 0 79q17 16 41 15.5t40 -15.5z" />
    <glyph glyph-name="uniE75F" unicode="&#xe75f;" horiz-adv-x="610" 
d="M579 228q15 -16 15.5 -40t-15.5 -41q-37 -37 -79 0l-195 188l-195 -188q-42 -37 -79 0q-16 17 -15.5 41t15.5 40l235 225q17 17 39 17t39 -17q215 -204 235 -225z" />
    <glyph glyph-name="uniE760" unicode="&#xe760;" horiz-adv-x="947" 
d="M3 103l74 216q4 14 19 22q16 6 29 2l217 -74q22 -7 22.5 -20t-20.5 -23l-100 -50q25 -38 60.5 -66t79.5 -43q54 -19 108.5 -14.5t102.5 28t85 64.5t56 94q2 9 9 12t15 1l75 -25q18 -8 12 -25q-26 -78 -78.5 -136t-120.5 -91t-146.5 -39.5t-155.5 19.5q-66 22 -119 65.5
t-89 103.5l-102 -50q-21 -11 -31 -2t-2 31zM100 455q26 77 79 135.5t120.5 92t145.5 40t156 -19.5q66 -24 119 -67t89 -103l103 51q21 10 31 1t1 -31l-73 -216q-5 -14 -19 -22q-16 -6 -30 -2l-217 74q-22 7 -22.5 20t20.5 23l100 50q-25 37 -61 65.5t-80 43.5
q-54 19 -108.5 14t-102 -28t-84 -64t-55.5 -95q-3 -8 -10 -11t-15 -1l-74 26q-9 2 -12 9.5t-1 14.5z" />
    <glyph glyph-name="uniE761" unicode="&#xe761;" horiz-adv-x="789" 
d="M0 329q0 82 31 153.5t84.5 125.5t125.5 85t154 31t153.5 -31t125 -85t84.5 -125.5t31 -153.5t-31 -153.5t-84.5 -125.5t-125 -85t-153.5 -31t-154 31t-125.5 85t-84.5 125.5t-31 153.5zM119 329q0 -57 21.5 -107.5t59 -88t88 -59t107.5 -21.5t107.5 21.5t88 59t59.5 88
t22 107.5t-22 107.5t-59.5 88.5t-88 59.5t-107.5 21.5t-107.5 -21.5t-88 -59.5t-59 -88.5t-21.5 -107.5zM272 166v326q0 10 8 15q8 4 16 0l283 -164q8 -4 8 -14.5t-8 -13.5l-283 -164q-4 -2 -9 -2q-3 0 -7 2q-8 5 -8 15z" />
    <glyph glyph-name="uniE762" unicode="&#xe762;" horiz-adv-x="947" 
d="M0 -34v726q0 20 18 30q20 7 33 -8l335 -362q9 -9 9 -23t-9 -23l-335 -362q-9 -10 -22 -10q-3 0 -11 2q-18 9 -18 30zM395 -34v726q0 20 18 30q20 7 32 -8l336 -362q8 -9 8 -23t-8 -23l-336 -362q-8 -10 -21 -10q-3 0 -11 2q-18 9 -18 30zM789 -27q0 -16 12 -27.5
t27 -11.5h79q17 0 28.5 11.5t11.5 27.5v711q0 17 -11.5 28.5t-28.5 11.5h-79q-15 0 -27 -11.5t-12 -28.5v-711z" />
    <glyph glyph-name="uniE763" unicode="&#xe763;" horiz-adv-x="947" 
d="M0 -27q0 -16 11.5 -27.5t27.5 -11.5h79q17 0 28.5 11.5t11.5 27.5v711q0 17 -11.5 28.5t-28.5 11.5h-79q-16 0 -27.5 -11.5t-11.5 -28.5v-711zM158 329q0 14 8 22l336 363q7 10 21 10q3 0 12 -2q18 -10 18 -31v-725q0 -21 -18 -30q-20 -7 -33 8l-336 362q-8 9 -8 23z
M553 329q0 14 8 22l336 363q7 10 21 10q3 0 11 -2q18 -10 18 -31v-725q0 -21 -18 -30q-20 -7 -32 8l-336 362q-8 9 -8 23z" />
    <glyph glyph-name="uniE764" unicode="&#xe764;" horiz-adv-x="482" 
d="M241 208q53 0 112 20v-355l-112 112l-111 -112v355q58 -20 111 -20zM241.5 766q92.5 0 157.5 -65.5t65 -158t-65 -157.5t-157.5 -65t-158 65t-65.5 157.5t65.5 158t158 65.5zM241.5 431q45.5 0 78.5 33t33 78.5t-33 78.5t-78.5 33t-78.5 -33t-33 -78.5t33 -78.5t78.5 -33
z" />
    <glyph glyph-name="uniE765" unicode="&#xe765;" 
d="M18 654q0 57 56 57t56 -57q0 -55 -56 -55t-56 55zM18 431q0 57 56 57t56 -57q0 -55 -56 -55t-56 55zM18 208q0 56 56 56t56 -56q0 -55 -56 -55t-56 55zM18 -15q0 56 56 56t56 -56q0 -55 -56 -55t-56 55zM241 599v112h670v-112h-670zM241 376v112h670v-112h-670zM241 153
v111h670v-111h-670zM241 -70v111h670v-111h-670z" />
    <glyph glyph-name="uniE766" unicode="&#xe766;" 
d="M18 654q0 57 56 57t56 -57q0 -55 -56 -55t-56 55zM241 599v112h670v-112h-670zM241 431q0 57 57 57q55 0 55 -57q0 -55 -55 -55q-57 0 -57 55zM464 376v112h447v-112h-447zM241 -15q0 56 57 56q55 0 55 -56q0 -55 -55 -55q-57 0 -57 55zM464 -70v111h447v-111h-447z
M464 208q0 56 57 56q55 0 55 -56q0 -55 -55 -55q-57 0 -57 55zM688 153v111h223v-111h-223z" />
    <glyph glyph-name="uniE768" unicode="&#xe768;" horiz-adv-x="1030" 
d="M915 550q41 0 70.5 -29.5t29.5 -70.5v-300q0 -41 -29.5 -70.5t-70.5 -29.5h-800q-41 0 -70.5 29.5t-29.5 70.5v300q0 41 29.5 70.5t70.5 29.5h800zM915 150v300h-800v-300h800z" />
    <glyph glyph-name="uniE769" unicode="&#xe769;" horiz-adv-x="1030" 
d="M915 550q41 0 70.5 -29.5t29.5 -70.5v-300q0 -41 -29.5 -70.5t-70.5 -29.5h-800q-41 0 -70.5 29.5t-29.5 70.5v300q0 41 29.5 70.5t70.5 29.5h800zM915 150v300h-800v-300h800zM365 400v-200h-200v200h200z" />
    <glyph glyph-name="uniE76A" unicode="&#xe76a;" horiz-adv-x="1030" 
d="M915 550q41 0 70.5 -29.5t29.5 -70.5v-300q0 -41 -29.5 -70.5t-70.5 -29.5h-800q-41 0 -70.5 29.5t-29.5 70.5v300q0 41 29.5 70.5t70.5 29.5h800zM915 150v300h-800v-300h800zM615 400v-200h-200v200h200zM365 400v-200h-200v200h200z" />
    <glyph glyph-name="uniE76B" unicode="&#xe76b;" horiz-adv-x="1030" 
d="M915 550q41 0 70.5 -29.5t29.5 -70.5v-300q0 -41 -29.5 -70.5t-70.5 -29.5h-800q-41 0 -70.5 29.5t-29.5 70.5v300q0 41 29.5 70.5t70.5 29.5h800zM915 150v300h-800v-300h800zM865 400v-200h-200v200h200zM365 400v-200h-200v200h200zM615 400v-200h-200v200h200z" />
    <glyph glyph-name="uniE770" unicode="&#xe770;" horiz-adv-x="1010" 
d="M505 97q41 0 70 -29.5t29 -70.5t-29 -70.5t-70 -29.5t-70 29.5t-29 70.5t29 70.5t70 29.5zM295 209q87 88 210 88t210 -88l-70 -71q-58 58 -140 58t-140 -58zM155 350q145 146 350 146t350 -146l-70 -70q-116 117 -280 117t-280 -117zM15 492q133 134 311.5 182t357 0
t311.5 -182l-70 -71q-114 115 -267 156t-306 0t-267 -156z" />
    <glyph glyph-name="uniE771" unicode="&#xe771;" horiz-adv-x="970" 
d="M546 710q169 0 289 -120t120 -290t-120 -290t-289 -120q-140 0 -251 87l70 75q83 -60 181 -60q127 0 217 90.5t90 217.5t-90 217t-217 90q-124 0 -213 -86.5t-93 -210.5h143l-184 -205l-184 205h123q4 167 123 283.5t285 116.5zM510 520h70v-206l130 -129l-50 -50
l-150 150v235z" />
    <glyph glyph-name="uniE772" unicode="&#xe772;" 
d="M911 431v-223h-112v-55q0 -24 -16 -40.5t-39 -16.5h-670q-24 0 -40 17t-16 40v335q0 22 16 38.5t40 16.5h670q24 0 39.5 -15.5t15.5 -39.5v-57h112zM688 208v223h-558v-223h558z" />
    <glyph glyph-name="uniE773" unicode="&#xe773;" 
d="M911 431v-223h-112v-55q0 -24 -16 -40.5t-39 -16.5h-670q-24 0 -40 17t-16 40v335q0 22 16 38.5t40 16.5h670q24 0 39.5 -15.5t15.5 -39.5v-57h112zM688 208v223h-224v-223h224z" />
    <glyph glyph-name="uniE774" unicode="&#xe774;" 
d="M911 431v-223h-112v-55q0 -24 -16 -40.5t-39 -16.5h-670q-24 0 -40 17t-16 40v335q0 22 16 38.5t40 16.5h670q24 0 39.5 -15.5t15.5 -39.5v-57h112z" />
    <glyph glyph-name="uniE775" unicode="&#xe775;" 
d="M799 431h112v-223h-112v-55q0 -24 -16 -40.5t-39 -16.5h-670q-24 0 -40 17t-16 40v110h179q17 -49 60 -80t97 -31v56h113v56h-113v112h110v55h-110v55q-54 0 -97 -31t-60 -80h-179v113q0 22 16 38.5t40 16.5h670q24 0 39.5 -15.5t15.5 -39.5v-57z" />
    <glyph glyph-name="uniE776" unicode="&#xe776;" horiz-adv-x="950" 
d="M239 454q-21 0 -43 -10q-53 59 -92 128q53 71 130 119q83 -34 150 -82q-5 -17 -5 -31q0 -12 3 -23q-66 -50 -114 -105q-12 4 -29 4zM141 356q0 -32 20 -59q-59 -113 -81 -232q-65 109 -65 235q0 108 49 206q35 -57 85 -111q-8 -19 -8 -39zM477 676q-27 0 -50 -14
q-54 39 -114 69q76 29 162 29q123 0 229 -61q-81 -16 -160 -50q-29 27 -67 27zM623 215q-158 24 -291 112q5 15 5 29q0 27 -15 52q44 48 98 90q26 -18 57 -18q19 0 38 8q90 -107 134 -241q-18 -15 -26 -32zM750 82q40 17 54 60q67 7 109 18q-46 -143 -167 -232q6 48 6 98
q0 18 -2 56zM600 149q-187 -93 -304 -273q-89 37 -157 110q12 147 80 275q12 -2 20 -2q28 0 51 14q143 -96 310 -124zM784 641q71 -64 111 -152.5t40 -188.5q0 -29 -5 -64q-73 -21 -129 -26q-25 58 -88 60q-48 146 -148 265q10 22 10 43q0 2 -0.5 5t-0.5 4q104 44 210 54z
M649 96q11 -10 32 -17q3 -51 3 -53q0 -66 -15 -143q-91 -43 -194 -43q-56 0 -112 14q110 159 286 242z" />
    <glyph glyph-name="uniE777" unicode="&#xe777;" horiz-adv-x="1030" 
d="M982 348q38 -41 31 -73l-28 -153q-4 -19 -22.5 -33t-39.5 -14h-816q-21 0 -39.5 14t-22.5 33l-28 153q-7 32 31 73q23 24 158 156q21 21 52 21h514q31 0 52 -21q135 -132 158 -156zM717 314h178l-102 111h-556l-102 -111h178q9 0 12 -6l40 -102h300l40 102q3 6 12 6z" />
    <glyph glyph-name="uniE778" unicode="&#xe778;" horiz-adv-x="930" 
d="M899 255q23 -49 15 -96l-34 -184q-4 -21 -21.5 -35.5t-38.5 -14.5h-710q-21 0 -38.5 14.5t-21.5 35.5l-34 184q-8 47 15 96l157 375q9 19 31 32t43 13h103l-20 -203h-135l255 -212l255 212h-135l-20 203h103q21 0 43 -13t31 -32zM831 118q3 21 -10 36t-34 15h-644
q-21 0 -34 -15t-10 -36l13 -72q3 -21 20 -35.5t38 -14.5h590q21 0 38 14.5t20 35.5z" />
    <glyph glyph-name="uniE779" unicode="&#xe779;" horiz-adv-x="845" 
d="M0 -66l1 41q5 2 15 4.5t25 4.5q47 9 56 17q8 5 25 34l120 316l142 373h38h27l6 -11l104 -247l33 -78l30 -75l27 -67l22 -53l15 -36l18 -48q12 -34 33 -77q12 -25 18 -29q10 -10 34 -13q13 -1 25.5 -4.5t27.5 -9.5q3 -19 3 -28v-5q0 -4 -1 -9q-22 0 -46 1t-51 3
q-27 3 -50.5 4t-44.5 1h-41q-17 0 -28 -1l-102 -6l-29 -1q0 11 0.5 21t1.5 19l66 14q29 7 35 13q6 4 6 13q0 8 -3 16l-24 59l-47 117l-229 1l-19 -50l-34 -91q-11 -33 -11 -43q0 -14 8 -22q7 -6 20.5 -9.5t32.5 -6.5q7 -2 43 -7v-30q0 -8 -1 -14q-18 0 -62 3l-115 8l-25 -4
q-22 -5 -42.5 -6.5t-41.5 -1.5h-11zM282 271q70 -1 111.5 -2t53.5 0l15 1q-9 26 -21 57l-27 67l-26 63q-11 27 -20 45z" />
    <glyph glyph-name="uniE77A" unicode="&#xe77a;" horiz-adv-x="729" 
d="M0 -66l1 49q14 3 35 6q20 3 35.5 6.5t28.5 9.5q4 7 6.5 13.5t4.5 12.5q3 17 4 41.5t1 57.5l-1 256q-1 20 -1.5 71.5t-2.5 136.5q-3 45 -7 56q-2 4 -6 5q-11 8 -36 9q-11 0 -59 6l-2 43l135 3l197 7h23q4 1 8 1h7q3 0 10.5 -0.5t20.5 -0.5h39q47 0 99 -14q9 -2 22 -7
t27 -13q33 -16 54 -39q23 -24 34 -54q5 -14 7.5 -29.5t2.5 -32.5q0 -37 -16 -66q-16 -30 -49 -54q-8 -6 -28 -16l-50 -24q92 -21 138 -75q47 -53 47 -121q0 -36 -14 -83q-12 -33 -37 -60q-34 -37 -73 -56q-40 -17 -105 -30q-36 -6 -102 -5l-102 2q-33 1 -71.5 -1t-83.5 -6
q-13 -1 -48 -2t-93 -3zM276 664q0 -7 0.5 -17t1.5 -22q1 -27 2 -62t0 -81v-51v-40q13 -2 27 -3t30 -1q90 0 136.5 33.5t46.5 115.5q0 58 -44 96q-43 39 -133 39q-27 0 -67 -7zM280 169l2 -139q0 -8 5 -22q38 -17 73 -17q67 0 113 21q42 20 63 58q9 19 14.5 42t5.5 52
q0 58 -22 92q-31 49 -73 65q-41 16 -128 16q-19 0 -32 -1.5t-21 -3.5v-74v-89z" />
    <glyph glyph-name="uniE77B" unicode="&#xe77b;" horiz-adv-x="542" 
d="M0 -66l9 43l17 5q10 3 23 6q22 5 37 10t26 10q14 20 21 53l14 70l30 138l6 33q12 61 21.5 91.5t9.5 32.5l15 80l9 32l11 70l5 25v20q-23 12 -76 15q-7 0 -12 0.5t-9 0.5l10 54l168 -8q16 -1 25 -1h14q18 0 45.5 1t67.5 3q21 3 35.5 4t19.5 1q-1 -6 -1.5 -10.5t-1.5 -9.5
l-4 -12l-3 -15q-26 -8 -57 -15q-34 -9 -54 -16q-6 -17 -13 -46q-3 -12 -4.5 -22.5t-2.5 -19.5l-21 -90l-14 -66l-32 -160l-20 -82l-22 -121l-8 -23v-5q0 -3 1 -8q18 -5 33.5 -7.5t29.5 -4.5q3 0 11.5 -1t23.5 -3q-1 -10 -1.5 -17t-1.5 -14q-1 -3 -2 -8t-3 -12
q-4 0 -7.5 -0.5t-5.5 -0.5q-9 -1 -15 -1h-7h-5q-4 0 -10 2q-4 0 -23 2t-54 7l-104 1q-31 0 -92 -7q-20 -2 -33 -3t-19 -1z" />
    <glyph glyph-name="uniE77C" unicode="&#xe77c;" horiz-adv-x="947" 
d="M0 526q7 19 17.5 57t23.5 94q4 17 7 28t5 17h29l3 -6l2 -4q15 -29 21 -37q9 -2 67 -2q18 0 34 0.5t31 0.5l11 1l57 1l110 -1h148l29 6q5 4 13 27l3 6l3 9l22 1h5q3 0 8 -1q2 -20 1 -50t1 -71v-52v-29q0 -8 -1 -15t-2 -12q-10 -4 -18.5 -5.5t-15.5 -3.5q-14 26 -28 66
q-14 42 -19 47q-6 8 -13 11q-6 2 -32 2h-70h-16q-9 0 -18 -2q-3 -22 -3 -37l1 -78v-171l1 -185v-75q0 -37 5 -60q4 -2 11 -4.5t18 -4.5q2 0 11 -2t25 -6q14 -5 26 -10q2 -10 2 -17v-9v-5q0 -4 -1 -10h-18q-24 0 -45.5 1t-39 3.5t-48.5 3.5t-77 1q-8 0 -29 -2.5t-56 -5.5
q-15 -1 -23.5 -1.5t-12.5 -0.5q0 5 -0.5 8.5t-0.5 5.5l-1 13v5q10 16 41 25q49 14 70 25q2 6 3 13.5t2 16.5q2 35 3 90.5t0 131.5l-2 220q-1 46 -1 73t-2 37q0 5 -3 8q-2 3 -7 3q-8 2 -32 2h-66q-46 0 -61 -10q-21 -15 -62 -79q-11 -18 -18 -18q-11 6 -18 12t-10 10z
M711 52.5q3 6.5 16 6.5h62v539h-62q-13 0 -16 7t7 18l95 94q7 7 16 7q8 0 16 -7l95 -94q9 -11 6.5 -18t-17.5 -7h-61v-539h61q15 0 17.5 -6.5t-6.5 -16.5l-95 -95q-8 -7 -16.5 -7t-15.5 7l-95 95q-10 10 -7 16.5z" />
    <glyph glyph-name="uniE77D" unicode="&#xe77d;" horiz-adv-x="789" 
d="M0 54.5q0 9.5 6 15.5l96 95q10 10 16.5 7t6.5 -17v-62h539v62q0 14 7 17t17 -7l95 -95q6 -6 6 -15.5t-6 -16.5l-95 -95q-10 -10 -17 -7.5t-7 17.5v61h-539v-61q0 -15 -6.5 -17.5t-16.5 7.5l-96 95q-6 7 -6 16.5zM0 568q7 15 17 45t23 75q3 14 5.5 22t5.5 14h28q4 -7 5 -8
q14 -24 19 -29q1 0 18.5 -0.5t40.5 -0.5h46h38h63l10 1h56h104h214l27 3q6 5 13 23q1 2 2 5t3 7h20h15v-97v-41v-23q0 -7 -0.5 -11.5t-1.5 -9.5q-17 -6 -33 -8q-13 19 -26 53q-14 30 -18 38q-7 5 -14 7q-3 1 -21.5 1.5t-43.5 0.5h-53h-50h-15q-9 0 -18 -1q-1 -9 -1.5 -16.5
t-0.5 -12.5l2 -229l-1 -61q0 -31 6 -47q7 -3 28 -6q2 0 10.5 -2.5t22.5 -5.5l14 -4q6 -1 12 -3l1 -13q1 -5 1 -7t-0.5 -5.5t-0.5 -7.5h-17q-49 0 -81 3q-34 4 -121 4q-8 0 -28 -2t-53 -4q-14 -1 -22.5 -1.5t-12.5 -0.5q0 9 -1 11v10v4q10 14 38 20q46 11 67 21q2 5 3 10.5
t2 13.5q0 9 0.5 36t0.5 61.5t-0.5 73t-1 71.5t-1 55.5t-0.5 24.5q0 4 -3 6q-1 1 -6 3q-8 1 -31 1h-63q-10 0 -32 -1h-44q-22 -1 -40 -2.5t-21 -3.5q-21 -13 -60 -63q-10 -15 -17 -15q-11 5 -17.5 10t-9.5 8z" />
    <glyph glyph-name="uniE77E" unicode="&#xe77e;" horiz-adv-x="947" 
d="M0 -26v59q0 16 11.5 27.5t28.5 11.5h868q16 0 27.5 -11.5t11.5 -27.5v-59q0 -17 -11.5 -28.5t-27.5 -11.5h-868q-17 0 -28.5 11.5t-11.5 28.5zM0 191v59q0 17 11.5 28.5t28.5 11.5h553q15 0 27 -11.5t12 -28.5v-59q0 -17 -12 -28.5t-27 -11.5h-553q-17 0 -28.5 11.5
t-11.5 28.5zM0 408v59q0 17 11.5 28.5t28.5 11.5h789q16 0 27.5 -11.5t11.5 -28.5v-59q0 -17 -11.5 -28t-27.5 -11h-789q-17 0 -28.5 11t-11.5 28zM0 625v60q0 16 11.5 27.5t28.5 11.5h474q15 0 27 -11.5t12 -27.5v-60q0 -16 -12 -27.5t-27 -11.5h-474q-17 0 -28.5 11.5
t-11.5 27.5z" />
    <glyph glyph-name="uniE77F" unicode="&#xe77f;" horiz-adv-x="947" 
d="M0 -26v59q0 16 11.5 27.5t28.5 11.5h868q16 0 27.5 -11.5t11.5 -27.5v-59q0 -17 -11.5 -28.5t-27.5 -11.5h-868q-17 0 -28.5 11.5t-11.5 28.5zM40 408v59q0 17 11 28.5t28 11.5h789q17 0 28.5 -11.5t11.5 -28.5v-59q0 -17 -11.5 -28t-28.5 -11h-789q-17 0 -28 11t-11 28z
M158 191v59q0 17 11.5 28.5t28.5 11.5h553q15 0 26.5 -11.5t11.5 -28.5v-59q0 -17 -11.5 -28.5t-26.5 -11.5h-553q-17 0 -28.5 11.5t-11.5 28.5zM198 625v60q0 16 11 27.5t28 11.5h474q16 0 28 -11.5t12 -27.5v-60q0 -16 -12 -27.5t-28 -11.5h-474q-17 0 -28 11.5t-11 27.5z
" />
    <glyph glyph-name="uniE780" unicode="&#xe780;" horiz-adv-x="947" 
d="M0 -26v59q0 16 11.5 27.5t28.5 11.5h868q16 0 27.5 -11.5t11.5 -27.5v-59q0 -17 -11.5 -28.5t-27.5 -11.5h-868q-17 0 -28.5 11.5t-11.5 28.5zM79 408v59q0 17 11.5 28.5t28.5 11.5h789q16 0 27.5 -11.5t11.5 -28.5v-59q0 -17 -11.5 -28t-27.5 -11h-789q-17 0 -28.5 11
t-11.5 28zM316 191v59q0 17 11.5 28.5t28.5 11.5h552q16 0 27.5 -11.5t11.5 -28.5v-59q0 -17 -11.5 -28.5t-27.5 -11.5h-552q-17 0 -28.5 11.5t-11.5 28.5zM395 625v60q0 16 11.5 27.5t28.5 11.5h473q16 0 27.5 -11.5t11.5 -27.5v-60q0 -16 -11.5 -27.5t-27.5 -11.5h-473
q-17 0 -28.5 11.5t-11.5 27.5z" />
    <glyph glyph-name="uniE781" unicode="&#xe781;" horiz-adv-x="947" 
d="M0 -26v59q0 16 11.5 27.5t28.5 11.5h868q16 0 27.5 -11.5t11.5 -27.5v-59q0 -17 -11.5 -28.5t-27.5 -11.5h-868q-17 0 -28.5 11.5t-11.5 28.5zM0 191v59q0 17 11.5 28.5t28.5 11.5h868q16 0 27.5 -11.5t11.5 -28.5v-59q0 -17 -11.5 -28.5t-27.5 -11.5h-868
q-17 0 -28.5 11.5t-11.5 28.5zM0 408v59q0 17 11.5 28.5t28.5 11.5h868q16 0 27.5 -11.5t11.5 -28.5v-59q0 -17 -11.5 -28t-27.5 -11h-868q-17 0 -28.5 11t-11.5 28zM0 625v60q0 16 11.5 27.5t28.5 11.5h868q16 0 27.5 -11.5t11.5 -27.5v-60q0 -16 -11.5 -27.5t-27.5 -11.5
h-868q-17 0 -28.5 11.5t-11.5 27.5z" />
    <glyph glyph-name="uniE782" unicode="&#xe782;" horiz-adv-x="947" 
d="M0 -26v59q0 16 11.5 27.5t28.5 11.5h79q16 0 27.5 -11.5t11.5 -27.5v-59q0 -17 -11.5 -28.5t-27.5 -11.5h-79q-17 0 -28.5 11.5t-11.5 28.5zM0 191v59q0 17 11.5 28.5t28.5 11.5h79q16 0 27.5 -11.5t11.5 -28.5v-59q0 -17 -11.5 -28.5t-27.5 -11.5h-79q-17 0 -28.5 11.5
t-11.5 28.5zM0 408v59q0 17 11.5 28.5t28.5 11.5h79q16 0 27.5 -11.5t11.5 -28.5v-59q0 -17 -11.5 -28t-27.5 -11h-79q-17 0 -28.5 11t-11.5 28zM0 625v60q0 16 11.5 27.5t28.5 11.5h79q16 0 27.5 -11.5t11.5 -27.5v-60q0 -16 -11.5 -27.5t-27.5 -11.5h-79q-17 0 -28.5 11.5
t-11.5 27.5zM237 -26v59q0 16 11.5 27.5t28.5 11.5h631q16 0 27.5 -11.5t11.5 -27.5v-59q0 -17 -11.5 -28.5t-27.5 -11.5h-631q-17 0 -28.5 11.5t-11.5 28.5zM237 191v59q0 17 11.5 28.5t28.5 11.5h631q16 0 27.5 -11.5t11.5 -28.5v-59q0 -17 -11.5 -28.5t-27.5 -11.5h-631
q-17 0 -28.5 11.5t-11.5 28.5zM237 408v59q0 17 11.5 28.5t28.5 11.5h631q16 0 27.5 -11.5t11.5 -28.5v-59q0 -17 -11.5 -28t-27.5 -11h-631q-17 0 -28.5 11t-11.5 28zM237 625v60q0 16 11.5 27.5t28.5 11.5h631q16 0 27.5 -11.5t11.5 -27.5v-60q0 -16 -11.5 -27.5
t-27.5 -11.5h-631q-17 0 -28.5 11.5t-11.5 27.5z" />
    <glyph glyph-name="uniE783" unicode="&#xe783;" horiz-adv-x="947" 
d="M0 323v39q0 20 20 20h109v79q0 15 8.5 18.5t20.5 -8.5l110 -110q9 -9 9 -19t-9 -18l-110 -111q-12 -11 -20.5 -8t-8.5 20v78h-109q-20 0 -20 20zM316 -46v750q0 20 20 20h39q20 0 20 -20v-750q0 -20 -20 -20h-39q-20 0 -20 20zM474 -26v59q0 16 11.5 27.5t28.5 11.5h394
q16 0 27.5 -11.5t11.5 -27.5v-59q0 -17 -11.5 -28.5t-27.5 -11.5h-394q-17 0 -28.5 11.5t-11.5 28.5zM474 191v59q0 17 11.5 28.5t28.5 11.5h315q16 0 27.5 -11.5t11.5 -28.5v-59q0 -17 -11.5 -28.5t-27.5 -11.5h-315q-17 0 -28.5 11.5t-11.5 28.5zM474 408v59
q0 17 11.5 28.5t28.5 11.5h354q17 0 28.5 -11.5t11.5 -28.5v-59q0 -17 -11.5 -28t-28.5 -11h-354q-17 0 -28.5 11t-11.5 28zM474 625v60q0 16 11.5 27.5t28.5 11.5h275q17 0 28.5 -11.5t11.5 -27.5v-60q0 -16 -11.5 -27.5t-28.5 -11.5h-275q-17 0 -28.5 11.5t-11.5 27.5z
" />
    <glyph glyph-name="uniE784" unicode="&#xe784;" horiz-adv-x="947" 
d="M0 -26v59q0 16 11.5 27.5t27.5 11.5h395q17 0 28.5 -11.5t11.5 -27.5v-59q0 -17 -11.5 -28.5t-28.5 -11.5h-395q-16 0 -27.5 11.5t-11.5 28.5zM0 191v59q0 17 11.5 28.5t27.5 11.5h316q17 0 28.5 -11.5t11.5 -28.5v-59q0 -17 -11.5 -28.5t-28.5 -11.5h-316
q-16 0 -27.5 11.5t-11.5 28.5zM0 408v59q0 17 11.5 28.5t27.5 11.5h356q16 0 27.5 -11.5t11.5 -28.5v-59q0 -17 -11.5 -28t-27.5 -11h-356q-16 0 -27.5 11t-11.5 28zM0 625v60q0 16 11.5 27.5t27.5 11.5h277q16 0 27.5 -11.5t11.5 -27.5v-60q0 -16 -11.5 -27.5t-27.5 -11.5
h-277q-16 0 -27.5 11.5t-11.5 27.5zM553 -46v750q0 20 20 20h39q8 0 14 -6t6 -14v-750q0 -8 -6 -14t-14 -6h-39q-20 0 -20 20zM671 316q0 9 7 18l111 111q12 11 20 8t8 -20v-78h110q9 0 14.5 -5.5t5.5 -14.5v-39q0 -8 -5.5 -14t-14.5 -6h-110v-79q0 -15 -8 -19t-20 8
l-111 111q-7 10 -7 19z" />
    <glyph glyph-name="uniE788" unicode="&#xe788;" horiz-adv-x="950" 
d="M469 760q94 1 179.5 -34.5t148 -96t100 -145t38.5 -178.5t-34.5 -179.5t-96 -148t-145 -100t-178.5 -38.5t-179.5 34.5t-148 96t-100 145t-38.5 178.5t34.5 179.5t96 148t145 100t178.5 38.5zM470 700q-96 -1 -180 -45l62 -103q58 28 123 28t123 -28l62 103
q-88 46 -190 45zM223 177q-28 58 -28 123t28 123l-103 62q-46 -88 -45 -190q1 -96 45 -180zM480 -100q96 1 180 45l-62 103q-58 -28 -123 -28t-123 28l-62 -103q88 -46 190 -45zM475 80q91 0 155.5 64t64.5 156t-64.5 156t-155.5 64t-155.5 -64t-64.5 -156t64.5 -156
t155.5 -64zM727 177l103 -62q46 88 45 190q-1 96 -45 180l-103 -62q28 -58 28 -123t-28 -123z" />
    <glyph glyph-name="uniE789" unicode="&#xe789;" horiz-adv-x="590" 
d="M565 81q28 -79 -17.5 -157.5t-137.5 -110.5q-94 -29 -175.5 7.5t-103.5 117.5l-107 385q-19 68 7 134t84 105l-96 187q-7 13 -2.5 27t17.5 21t26 2.5t20 -17.5l99 -192q80 21 154 -17t101 -115zM240 355q28 9 41 35t4 54t-34.5 41.5t-52.5 4.5t-40.5 -35t-4.5 -54
t34 -41.5t53 -4.5z" />
    <glyph glyph-name="uniE78A" unicode="&#xe78a;" horiz-adv-x="1030" 
d="M470 276v-100h-455q7 226 10 292q2 53 24.5 80.5t75.5 27.5h160l37 70q22 41 23 42q14 25 23 31.5t36 6.5h222q27 0 36 -6.5t23 -31.5q1 -1 23 -42l37 -70h160q53 0 75.5 -27.5t24.5 -80.5l10 -292h-455v100h-90zM398 630q-3 -6 -29 -54h292q-26 48 -29 54
q-8 17 -15 21.5t-25 4.5h-154q-18 0 -25 -4.5t-15 -21.5zM560 26v100h430q-6 -89 -10 -167q-1 -15 -4 -27t-11.5 -26t-27.5 -22t-47 -8h-750q-28 0 -47 8t-27.5 22t-11.5 26t-4 27l-10 167h430v-100h90z" />
    <glyph glyph-name="uniE78B" unicode="&#xe78b;" horiz-adv-x="250" 
d="M125 410q46 0 78 -32t32 -78t-32 -78t-78 -32t-78 32t-32 78t32 78t78 32z" />
    <glyph glyph-name="uniE78C" unicode="&#xe78c;" horiz-adv-x="600" 
d="M125 410q46 0 78 -32t32 -78t-32 -78t-78 -32t-78 32t-32 78t32 78t78 32zM475 410q46 0 78 -32t32 -78t-32 -78t-78 -32t-78 32t-32 78t32 78t78 32z" />
    <glyph glyph-name="uniE78D" unicode="&#xe78d;" horiz-adv-x="950" 
d="M125 410q46 0 78 -32t32 -78t-32 -78t-78 -32t-78 32t-32 78t32 78t78 32zM475 410q46 0 78 -32t32 -78t-32 -78t-78 -32t-78 32t-32 78t32 78t78 32zM825 410q46 0 78 -32t32 -78t-32 -78t-78 -32t-78 32t-32 78t32 78t78 32z" />
    <glyph glyph-name="uniE78E" unicode="&#xe78e;" horiz-adv-x="750" 
d="M0 309q0 94 43 175.5t121 134.5q7 4 15 4q7 -1 13 -9l44 -65q10 -17 -5 -27q-54 -37 -83 -93t-29 -120q0 -53 20 -99.5t54.5 -81.5t81.5 -55t100 -20t100 20t82 55t55 81.5t20 99.5q0 64 -29.5 120t-83.5 93q-6 3 -8 12q-2 7 3 15l45 65q5 7 12.5 8.5t14.5 -3.5
q77 -53 121 -134.5t44 -175.5q0 -78 -29.5 -146t-81 -119t-119.5 -80.5t-146 -29.5t-146 29.5t-119 80.5t-80.5 119t-29.5 146zM316 349v355q0 20 20 20h79q8 0 14 -6t6 -14v-355q0 -8 -6 -14t-14 -6h-79q-20 0 -20 20z" />
    <glyph glyph-name="uniE78F" unicode="&#xe78f;" horiz-adv-x="947" 
d="M1 -48l305 754q3 7 11 12.5t17 5.5h100l-5 -88h89l-4 88h100q8 0 16 -5.5t11 -12.5l305 -754q3 -7 -0.5 -12.5t-11.5 -5.5h-380l-14 263h-133l-13 -263h-380q-9 0 -12.5 5.5t-0.5 12.5zM415 344h118l-11 212h-97z" />
    <glyph glyph-name="uniE790" unicode="&#xe790;" horiz-adv-x="947" 
d="M0 -7v672q0 24 17.5 41.5t41.5 17.5h829q25 0 42 -17.5t17 -41.5v-672q0 -24 -17 -41.5t-42 -17.5h-829q-24 0 -41.5 17.5t-17.5 41.5zM79 13h789v553h-789v-553zM158 112v39q0 20 20 20h79q8 0 14 -6t6 -14v-39q0 -8 -6 -14t-14 -6h-79q-20 0 -20 20zM158 270v39
q0 20 20 20h79q8 0 14 -6t6 -14v-39q0 -8 -6 -14t-14 -6h-79q-20 0 -20 20zM158 428v39q0 20 20 20h79q8 0 14 -6t6 -14v-39q0 -9 -6 -14.5t-14 -5.5h-79q-20 0 -20 20zM356 112v39q0 8 5 14t14 6h394q20 0 20 -20v-39q0 -20 -20 -20h-394q-9 0 -14 6t-5 14zM356 270v39
q0 8 5 14t14 6h394q20 0 20 -20v-39q0 -20 -20 -20h-394q-9 0 -14 6t-5 14zM356 428v39q0 8 5 14t14 6h394q20 0 20 -20v-39q0 -20 -20 -20h-394q-9 0 -14 5.5t-5 14.5z" />
    <glyph glyph-name="uniE791" unicode="&#xe791;" horiz-adv-x="789" 
d="M0 -66v359h359v-359h-359zM0 365v359h359v-359h-359zM72 6h215v216h-215v-216zM72 436h215v216h-215v-216zM143 77v73h73v-73h-73zM143 508v71h73v-71h-73zM431 -66v359h214v-71h73v71h71v-216h-215v72h-72v-215h-71zM431 365v359h358v-359h-358zM502 436h216v216h-216
v-216zM574 -66v72h71v-72h-71zM574 508v71h71v-71h-71zM718 -66v72h71v-72h-71z" />
    <glyph glyph-name="uniE792" unicode="&#xe792;" horiz-adv-x="947" 
d="M0 -66v790h79v-790h-79zM117 -66v790h19v-790h-19zM183 -66v790h60v-790h-60zM280 -66v790h40v-790h-40zM367 -66v790h39v-790h-39zM464 -66v790h19v-790h-19zM521 -66v790h79v-790h-79zM627 -66v790h40v-790h-40zM724 -66v790h20v-790h-20zM812 -66v790h19v-790h-19z
M868 -66v790h79v-790h-79z" />
    <glyph glyph-name="uniE793" unicode="&#xe793;" horiz-adv-x="789" 
d="M0 329q0 82 31 153.5t84.5 125.5t125.5 85t154 31t153.5 -31t125 -85t84.5 -125.5t31 -153.5t-31 -153.5t-84.5 -125.5t-125 -85t-153.5 -31t-154 31t-125.5 85t-84.5 125.5t-31 153.5zM119 329q0 -57 21.5 -107.5t59 -88t88 -59t107.5 -21.5v553q-57 0 -107.5 -21.5
t-88 -59.5t-59 -88.5t-21.5 -107.5z" />
    <glyph glyph-name="uniE794" unicode="&#xe794;" horiz-adv-x="558" 
d="M0 214q0 41 11.5 79t32.5 71q11 17 35 49.5t53 76t56.5 95t44.5 107.5q5 18 18 26t28 6q16 2 29 -6t18 -26q17 -56 44.5 -107.5t56.5 -95t53 -76t35 -49.5q21 -33 32.5 -71t11.5 -79q0 -58 -22 -109t-60 -89t-89 -60t-109 -22t-108.5 22t-88.5 60t-60 89t-22 109z
M122 152q0 -29 20.5 -49t50.5 -20q28 0 48.5 20t20.5 49q0 19 -10 38q-4 4 -10 12t-13 19t-14 24t-11 27q-4 10 -11 7q-10 3 -12 -7q-4 -14 -11.5 -27t-14.5 -24t-13 -19t-8 -12q-12 -18 -12 -38z" />
    <glyph glyph-name="uniE795" unicode="&#xe795;" 
d="M576 208v-112h-55v-166q0 -23 -17 -40t-39.5 -17t-39 16.5t-16.5 40.5v166h-56v112h56v503q0 24 16.5 39.5t38.5 15.5q24 0 40.5 -16t16.5 -39v-503h55zM911 543v-112h-55v-501q0 -23 -16.5 -40t-40.5 -17q-23 0 -39 16.5t-16 40.5v501h-56v112h56v168q0 24 15.5 39.5
t39.5 15.5t40.5 -16t16.5 -39v-168h55zM241 431v-111h-55v-390q0 -23 -16 -40t-40 -17q-23 0 -39.5 16.5t-16.5 40.5v390h-56v111h56v280q0 24 16 39.5t40 15.5t40 -16t16 -39v-280h55z" />
    <glyph glyph-name="uniE796" unicode="&#xe796;" 
d="M911 -15l-112 -112l-390 391l-168 -168l-223 670l670 -223l-167 -167z" />
    <glyph glyph-name="uniE797" unicode="&#xe797;" 
d="M608 376l-225 382q47 8 81 8q177 0 304 -120zM575 208l233 395q103 -125 103 -283q0 -53 -16 -112h-320zM479 488h-427q37 91 109 158t167 97zM455 153h423q-37 -90 -108.5 -156.5t-164.5 -98.5zM356 431l-234 -396q-104 126 -104 285q0 52 16 111h322zM323 266l227 -384
q-48 -9 -86 -9q-172 0 -302 120z" />
    <glyph glyph-name="uniE798" unicode="&#xe798;" 
d="M864 516q47 -97 47 -196q0 -36 -9 -82h-316zM606 341v400q145 -48 228 -172zM485 179h401q-50 -146 -172 -229zM547 438l-281 280q96 48 198 48q38 0 83 -8v-320zM383 198l277 -278q-97 -47 -196 -47q-34 0 -81 9v316zM323 298v-400q-145 48 -228 172zM26 402h317
l-278 -278q-47 97 -47 196q0 36 8 82zM214 689l228 -228h-399q48 145 171 228z" />
    <glyph glyph-name="uniE799" unicode="&#xe799;" 
d="M464.5 766q184.5 0 315.5 -131t131 -315.5t-131 -315.5t-315.5 -131t-315.5 131t-131 315.5t131 315.5t315.5 131zM464.5 654q-106.5 0 -192.5 -62t-122 -161h629q-36 99 -122 161t-192.5 62zM464 264q24 0 40.5 16.5t16.5 39.5q0 24 -17 40t-39.5 16t-39 -16t-16.5 -40
t16.5 -40t38.5 -16zM130 320q0 -124 79 -216.5t199 -112.5q-2 137 -83 233t-195 96zM521 -9q120 20 199 112.5t79 216.5q-114 0 -195 -96t-83 -233z" />
    <glyph glyph-name="uniE79A" unicode="&#xe79a;" 
d="M464 171q0 -124 -87 -211t-210 -87q-81 0 -149 40q68 39 108.5 107.5t40.5 150.5q0 61 43.5 105t105 44t105 -44t43.5 -105zM878.5 733.5q32.5 -32.5 32.5 -79t-33 -79.5l-318 -318q-20 55 -61.5 97t-96.5 62l318 318q32 32 79 32t79.5 -32.5z" />
    <glyph glyph-name="uniE79B" unicode="&#xe79b;" 
d="M353 96q0 -92 -65.5 -157.5t-157.5 -65.5q-62 0 -112 30q52 29 82 80.5t30 112.5q0 46 33 79t78.5 33t78.5 -33t33 -79zM878.5 733.5q32.5 -32.5 32.5 -79t-33 -79.5l-422 -421q-16 58 -58 100t-99 57l421 423q32 32 79 32t79.5 -32.5z" />
    <glyph glyph-name="uniE79C" unicode="&#xe79c;" 
d="M845 384l-16 -16l81 -81l-80 -78l-80 81l-415 -417h-208l-109 112v201l418 418l-83 84l78 78l83 -83l16 17q65 65 157.5 65t157.5 -65q66 -65 66 -157.5t-66 -158.5zM306 3l366 365l-158 158l-360 -361q63 -3 106 -46q48 -48 46 -116z" />
    <glyph glyph-name="uniE79D" unicode="&#xe79d;" 
d="M18 153l446 -112l447 112v-112l-447 -111l-446 111v112zM18 376l446 -112l447 112v-112l-447 -111l-446 111v112zM18 599l446 112l447 -112v-111l-447 -112l-446 112v111z" />
    <glyph glyph-name="uniE79E" unicode="&#xe79e;" 
d="M18 96l446 -111l447 111v-111l-447 -112l-446 112v111zM18 320l446 -112l447 112v-112l-447 -112l-446 112v112zM18 543l446 -112l447 112v-112l-447 -111l-446 111v112zM18 766l446 -112l447 112v-112l-447 -111l-446 111v112z" />
    <glyph glyph-name="uniE7A0" unicode="&#xe7a0;" 
d="M706 147q105 0 205 56q-42 -145 -162.5 -237.5t-274.5 -92.5q-188 0 -322 133.5t-134 322.5q0 154 92.5 274.5t237.5 162.5q-56 -100 -56 -205q0 -172 121.5 -293t292.5 -121z" />
    <glyph glyph-name="uniE7A1" unicode="&#xe7a1;" horiz-adv-x="789" 
d="M0 262v146q0 8 6 14t14 6h197q8 0 14 -6t6 -14v-146q0 -14 11.5 -30t32 -29.5t49.5 -22.5t65 -9t64.5 9t49 22.5t32.5 29.5t12 30v146q0 8 5.5 14t14.5 6h196q9 0 14.5 -6t5.5 -14v-146q0 -69 -31 -128.5t-84.5 -103.5t-125 -70t-153.5 -26t-154 26t-125.5 70
t-84.5 103.5t-31 128.5zM0 507v197q0 20 20 20h197q20 0 20 -20v-197q0 -20 -20 -20h-197q-20 0 -20 20zM553 507v197q0 20 20 20h196q20 0 20 -20v-197q0 -20 -20 -20h-196q-20 0 -20 20z" />
    <glyph glyph-name="uniE7A2" unicode="&#xe7a2;" 
d="M402 225l-280 -279q-104 122 -104 280t104 278zM574 651q144 -21 240.5 -130t96.5 -255q0 -164 -115.5 -278.5t-279.5 -114.5q-122 0 -229 79l287 290v409zM464 320l-320 320q143 115 320 126v-446z" />
    <glyph glyph-name="uniE7A3" unicode="&#xe7a3;" horiz-adv-x="873" 
d="M424 225l-296 -295q-110 128 -110 295t110 295zM468 264l-362 360q157 130 362 142v-502zM523 654q143 -21 238 -129.5t95 -256.5q0 -164 -115 -279.5t-278 -115.5q-127 0 -233 78l293 289v414z" />
    <glyph glyph-name="uniE7A4" unicode="&#xe7a4;" 
d="M353 322q0 112 111.5 112t111.5 -112t-111.5 -112t-111.5 112zM725 638q0 -23 16 -39.5t39 -16.5q18 0 35 14q96 -124 96 -274q0 -128 -62.5 -229t-159.5 -157q-103 -60 -225 -60q-128 0 -229 62t-157 160q-60 103 -60 224q0 149 95 272q15 -12 32 -12q24 0 40.5 16.5
t16.5 39.5q0 18 -12 33q96 77 219 93q3 -22 18.5 -36.5t37 -14.5t37 14.5t18.5 36.5q121 -15 218 -90q-13 -15 -13 -36zM241 322q0 -91 65.5 -157t158 -66t158 66t65.5 157q0 92 -66 158l-158 158l-157 -158q-66 -66 -66 -158z" />
    <glyph glyph-name="uniE7A5" unicode="&#xe7a5;" horiz-adv-x="990" 
d="M489 780q130 2 241.5 -61t177 -173t67.5 -240t-61 -241.5t-173 -177t-240 -67.5t-241.5 61t-177 173t-67.5 240t61 241.5t173 177t240 67.5zM500 -79q157 2 266.5 114.5t107.5 269.5t-114.5 266.5t-269.5 107.5t-266.5 -114.5t-107.5 -269.5t114.5 -266.5t269.5 -107.5z
M316 300q0 -36 15.5 -58.5t46.5 -22.5q40 0 56 39l57 -29q-17 -32 -48.5 -52t-72.5 -20q-63 0 -100 38.5t-37 104.5q0 63 37.5 103t97.5 40q84 0 122 -67l-62 -32q-18 37 -50 37q-62 0 -62 -81zM581 300q0 -36 15.5 -58.5t46.5 -22.5q41 0 57 39l57 -29q-41 -72 -121 -72
q-63 0 -100 38.5t-37 104.5q0 63 37.5 103t97.5 40q84 0 121 -67l-60 -32q-18 37 -52 37q-62 0 -62 -81z" />
    <glyph glyph-name="uniE7A6" unicode="&#xe7a6;" horiz-adv-x="900" 
d="M580 424l104 -92v252h-252l92 -104l-12 -12l-192 -192l-104 92v-252h252l-92 104zM900 350q0 -122 -60.5 -225.5t-164 -164t-225.5 -60.5t-225.5 60.5t-164 164t-60.5 225.5t60.5 225.5t164 164t225.5 60.5t225.5 -60.5t164 -164t60.5 -225.5z" />
    <glyph glyph-name="uniE7A7" unicode="&#xe7a7;" horiz-adv-x="423" 
d="M212 244l-212 212h424z" />
    <glyph glyph-name="uniE7A8" unicode="&#xe7a8;" horiz-adv-x="423" 
d="M424 244h-424l212 212z" />
    <glyph glyph-name="uniE7A9" unicode="&#xe7a9;" horiz-adv-x="900" 
d="M666 278l162 162h-108q-27 83 -106.5 137.5t-167.5 54.5q-118 0 -202 -83.5t-84 -201.5t84 -201t201.5 -83t200.5 83l-56 64q-59 -58 -140 -58q-82 0 -140 58t-58 140t58 140t140 58q86 0 140 -58q8 -7 11 -14.5t5.5 -18.5t5.5 -17h-108zM900 350q0 -122 -60.5 -225.5
t-164 -164t-225.5 -60.5t-225.5 60.5t-164 164t-60.5 225.5t60.5 225.5t164 164t225.5 60.5t225.5 -60.5t164 -164t60.5 -225.5z" />
    <glyph glyph-name="uniE7AA" unicode="&#xe7aa;" horiz-adv-x="900" 
d="M371 404h93l-146 238l-146 -238h93v-265h106v265zM582 86l146 213h-93v263h-106v-263h-93zM900 350.5q0 -122.5 -60.5 -225.5t-164 -163.5t-225.5 -60.5t-225.5 60.5t-164 163.5t-60.5 225.5t60.5 226t164 164t225.5 60.5t225.5 -60.5t164 -164t60.5 -226z" />
    <glyph glyph-name="uniE7AB" unicode="&#xe7ab;" horiz-adv-x="900" 
d="M169 57l-75 74l169 169l75 -75zM731 57l-169 168l75 75l169 -169zM263 525l-169 168l75 75l169 -169zM0 465h238v-106h-238v106zM662 359v106h238v-106h-238zM503 -38h-106v239h106v-239zM503 624h-106v238h106v-238z" />
    <glyph glyph-name="uniE7AC" unicode="&#xe7ac;" horiz-adv-x="1224" 
d="M144 329l285 122v86l-285 121v-89l188 -76l-188 -75v-89zM470 260h286v69h-286v-69zM1224 800v-900h-1224v900h1224z" />
    <glyph glyph-name="uniE7AD" unicode="&#xe7ad;" horiz-adv-x="900" 
d="M210 -35q0 -26 -19 -41t-45 -15q-29 0 -46.5 15.5t-17.5 43.5v3h34q0 -33 29 -33q13 0 21 7t8 19.5t-9 19.5t-23 6h-8v24q36 -2 36 22q0 10 -6.5 16t-17.5 6q-26 0 -26 -30h-34q1 27 17 42t43 15q23 0 40 -12t17 -34q0 -12 -6.5 -22t-17.5 -13q31 -7 31 -39zM209 238v-30
h-127q1 25 15.5 43.5t31 27t30.5 21t14 27.5q0 10 -7 17t-18 7q-26 0 -28 -37h-34q0 31 16.5 49.5t46.5 18.5q26 0 42.5 -14.5t16.5 -39.5q0 -22 -15 -36.5t-36 -27.5t-30 -26h82zM900 93v-192h-602v192h602zM176 676v-173h-37v113h-42v26q44 0 51 34h28zM900 394v-192h-602
v192h602zM900 695v-192h-602v192h602z" />
    <glyph glyph-name="uniE7AE" unicode="&#xe7ae;" horiz-adv-x="956" 
d="M394 0q0 35 -24.5 59.5t-59.5 24.5t-59.5 -24.5t-24.5 -59.5t24.5 -59.5t59.5 -24.5t59.5 24.5t24.5 59.5zM799 0q-1 35 -25 59.5t-59 24.5q-34 0 -58.5 -24.5t-24.5 -59.5t24.5 -59.5t58.5 -24.5q35 0 59.5 24.5t24.5 59.5zM792 525q22 -1 35.5 -15.5t13.5 -34.5v-281
q0 -22 -15 -37t-36 -15h-478q-17 0 -31.5 13t-16.5 30l-89 317q-15 58 -41 66q-10 2 -41.5 3t-44.5 11t-13 40q0 19 10 29.5t20 12.5l9 1h2q3 0 7.5 0.5t8.5 0.5q124 0 159 -102zM751 358v81l-113 9v-90h113zM472 358h126v92l-126 9v-101zM598 329h-126v-97h126v97zM432 461
l-160 10l38 -113h122v103zM320 329l30 -97h82v97h-112zM638 232h113v97h-113v-97z" />
    <glyph glyph-name="uniE7AF" unicode="&#xe7af;" horiz-adv-x="1228" 
d="M103 141v358q0 61 45.5 107.5t107.5 46.5h563q51 0 87 -51q41 -41 67 -103h10q10 5 15 5q36 0 57 -30q20 -26 20 -72v-164q0 -51 -30 -82q-16 -20 -41 -21q-21 0 -31 6q0 -61 -46 -107.5t-108 -46.5h-563q-61 0 -107 46.5t-46 107.5zM205 141q0 -51 51 -51h563
q51 0 52 51v358q0 51 -52 52h-563q-51 0 -51 -52v-358zM256 141v358h154v-358h-154z" />
    <glyph glyph-name="uniE7B0" unicode="&#xe7b0;" horiz-adv-x="686" 
d="M534 729q11 0 19 -8.5t8 -18.5v-686q0 -32 -23.5 -56t-56.5 -24h-276q-33 0 -56.5 24t-23.5 56v686q0 10 8 18.5t18 8.5h383zM500 601h-314v-243h314v243zM279 19v55h-93q0 -24 15 -39.5t39 -15.5h39zM279 98v52h-93v-52h93zM279 174v52h-93v-52h93zM279 250v52h-93v-52
h93zM388 19v55h-89v-55h89zM388 98v52h-89v-52h89zM388 174v52h-89v-52h89zM388 250v52h-89v-52h89zM409 19h36q25 0 40 15.5t15 39.5h-91v-55zM500 98v52h-91v-52h91zM500 174v52h-91v-52h91zM500 250v52h-91v-52h91zM311 675q-16 0 -16 -16q0 -18 16 -18h64q15 0 15 18
q0 16 -15 16h-64z" />
    <glyph glyph-name="uniE7B1" unicode="&#xe7b1;" horiz-adv-x="961" 
d="M738 812q41 0 69.5 -29t28.5 -71v-674q0 -42 -28.5 -71t-69.5 -29h-514q-42 0 -70.5 29t-28.5 71v674q0 42 28.5 71t70.5 29h514zM716 92v600h-471v-600h471zM481 -30q20 0 34 14.5t14 33.5q0 20 -13.5 33.5t-34.5 13.5t-34 -13.5t-13 -33.5q0 -19 13.5 -33.5t33.5 -14.5
z" />
    <glyph glyph-name="uniE7B2" unicode="&#xe7b2;" horiz-adv-x="750" 
d="M375 254q25 0 42.5 -17.5t17.5 -42.5t-17.5 -42.5t-42.5 -17.5t-42.5 17.5t-17.5 42.5t17.5 42.5t42.5 17.5zM550 764q31 0 53 -22t22 -53v-677q0 -31 -22 -52.5t-53 -21.5h-350q-31 0 -53 21.5t-22 52.5v677q0 31 22 53t53 22h350zM375 35q65 0 112 46.5t47 112.5
t-47 112t-112 46t-112 -46.5t-47 -111.5t47 -112t112 -47zM548 434v242h-346v-242h346z" />
    <glyph glyph-name="uniE7B3" unicode="&#xe7b3;" horiz-adv-x="957" 
d="M635 695l223 -223v-313l-223 -221h-314l-221 221v313l221 223h314zM824 172v287l-203 202h-286l-201 -202v-287l201 -201h286zM354 619h250l177 -178v-251l-177 -176h-250l-178 176v251z" />
    <glyph glyph-name="uniE7B4" unicode="&#xe7b4;" horiz-adv-x="1220" 
d="M125 -62v743h970v-743h-970zM644 389v-159h158v159h-158zM644 5h158v157h-158v-157zM802 614h-158v-158h158v158zM1028 230v159h-158v-159h158zM870 5h158v157h-158v-157zM1028 456v158h-158v-158h158zM192 389v-159h159v159h-159zM192 5h159v157h-159v-157zM351 614
h-159v-158h159v158zM576 230v159h-157v-159h157zM419 5h157v157h-157v-157zM576 456v158h-157v-158h157z" />
    <glyph glyph-name="uniE7B5" unicode="&#xe7b5;" horiz-adv-x="1021" 
d="M475 -139v115l-150 -57l-15 26l165 101v58h-317q-19 0 -32.5 13t-13.5 32q0 17 12 29.5t30 15.5v414q-18 1 -30 13.5t-12 29.5q0 19 13.5 32t32.5 13h326l18 49h12l18 -49h332q18 0 31.5 -13t13.5 -32t-13.5 -32t-31.5 -13v-412q18 0 31.5 -13t13.5 -32t-13.5 -32
t-31.5 -13h-328v-58l166 -101l-14 -26l-152 57v-115q0 -13 -9 -22.5t-22 -9.5q-14 0 -22 9.5t-8 22.5zM806 198v404h-595v-404h595z" />
    <glyph glyph-name="uniE7B6" unicode="&#xe7b6;" horiz-adv-x="1228" 
d="M307 -13v205q0 26 10 26q11 -6 23.5 -16t17.5 -10q10 -10 42 -10q36 0 56 36t20 76.5t-20.5 76.5t-55.5 36q-31 0 -52 -15q-26 -21 -31 -21q-10 10 -10 26v102q0 46 61 56h57h51q21 -5 36 -4q26 0 26 15q-6 5 -16 17.5t-10 18.5q-10 10 -10 40q0 36 36 56.5t76.5 20.5
t76.5 -20.5t36 -56.5q0 -30 -15 -51l-21 -25q6 -16 46 -15h82q46 10 72 -6q31 -15 31 -46v-102q0 -26 -11 -26q-10 6 -23 16t-17 10q-11 10 -42 10q-36 0 -56.5 -36t-20.5 -76.5t21 -76.5t56 -36q26 0 57 15q20 21 25 21q11 -11 11 -26v-205q0 -51 -51 -51h-154
q-26 0 -26 15q6 6 16 18.5t10 17.5q10 10 10 41q0 36 -36 56.5t-76.5 20.5t-76.5 -20.5t-36 -56.5q0 -31 15 -51l21 -26q-6 -15 -26 -15h-154q-51 0 -51 51z" />
    <glyph glyph-name="uniE7B7" unicode="&#xe7b7;" horiz-adv-x="1228" 
d="M169 294q0 21 41 87q10 16 43.5 64.5t59.5 79.5l66 87q30 41 82 41h563q51 0 51 -51v-615q0 -51 -51 -51h-563q-41 0 -82 41q0 5 -66 87q-26 31 -62 79.5t-41 58.5q-41 67 -41 92zM476 141l87 -87l154 153l154 -153l87 87l-154 153l154 154l-87 87l-154 -154l-154 154
l-87 -87l154 -154z" />
    <glyph glyph-name="uniE800" unicode="&#xe800;" horiz-adv-x="930" 
d="M821 656q40 -40 65.5 -87.5t28 -81.5t-12.5 -54l-135 -135q-16 -16 -62.5 -26t-95.5 -4l-408 -408q-18 -18 -57 -5t-75 49t-49 75t5 57l408 408q-6 49 4.5 95.5t26.5 62.5l134 135q24 27 93 3.5t130 -84.5zM372 248q14 -14 37.5 -10.5t43.5 23.5t23.5 43.5t-10.5 37.5
t-37 10.5t-43 -23.5t-24 -43.5t10 -37.5zM710 544q29 -29 67 -48.5t61.5 -25t27.5 -1.5t-2.5 27t-27 60t-49.5 66t-66 49.5t-60 27t-27 2.5t1.5 -28t25.5 -62t49 -67z" />
    <glyph glyph-name="uniE801" unicode="&#xe801;" horiz-adv-x="930" 
d="M45 536q-23 12 -28 33q1 19 25 21h846q33 0 23 -25q-7 -19 -26 -29l-375 -202q-19 -10 -45 -10t-45 10zM896 436q15 4 17 1.5t2 -12.5v-367q0 -16 -17 -32t-33 -16h-800q-16 0 -33 16t-17 32v367q0 10 2 12.5t17 -1.5l386 -202q19 -10 45 -10t45 10z" />
    <glyph glyph-name="uniE802" unicode="&#xe802;" horiz-adv-x="890" 
d="M804 591q70 -65 70 -156t-70 -156l-359 -330l-359 330q-70 65 -70 156t70 156q63 58 151 58t151 -58l57 -52l57 52q63 58 151 58t151 -58z" />
    <glyph glyph-name="uniE803" unicode="&#xe803;" horiz-adv-x="880" 
d="M795 591q70 -65 70 -156t-70 -156l-355 -330l-355 330q-70 65 -70 156t70 156q62 58 149.5 58t149.5 -58l56 -52l56 52q62 58 149.5 58t149.5 -58zM743 330q42 38 42 105t-37 100q-42 39 -102 39q-49 0 -102 -49l-104 -91l-104 91q-53 49 -102 49q-60 0 -102 -39
q-37 -33 -37 -100t42 -105l303 -286z" />
    <glyph glyph-name="uniE804" unicode="&#xe804;" horiz-adv-x="910" 
d="M455 740l119 -336h321l-262 -198l94 -346l-272 208l-272 -208l94 346l-262 198h321z" />
    <glyph glyph-name="uniE805" unicode="&#xe805;" horiz-adv-x="970" 
d="M751 78q94 -34 149 -67t55 -56v-105h-940v105q0 23 55 56t149 67q93 34 128 69t35 95q0 20 -10 31.5t-24 31.5t-21 58q-2 12 -9 17.5t-14.5 8t-14 17t-8.5 43.5q0 15 4.5 25.5t8.5 13.5l5 3q-9 50 -13 88q-2 21 6 47.5t27.5 55.5t62.5 48.5t103 19.5t103 -19.5
t62.5 -48.5t27.5 -55.5t6 -47.5l-13 -88q18 -8 18 -42q-2 -29 -8.5 -43.5t-14 -17t-14.5 -8t-9 -17.5q-7 -38 -21 -58t-24 -31.5t-10 -31.5q0 -60 35 -95t128 -69z" />
    <glyph glyph-name="uniE806" unicode="&#xe806;" horiz-adv-x="1010" 
d="M995 550h-100v-100h100v-100h-100v-100h100v-100h-100v-100h100v-60q0 -16 -11.5 -28t-28.5 -12h-900q-17 0 -28.5 12t-11.5 28v60h100v100h-100v100h100v100h-100v100h100v100h-100v60q0 16 11.5 28t28.5 12h900q17 0 28.5 -12t11.5 -28v-60zM395 150l250 150l-250 150
v-300z" />
    <glyph glyph-name="uniE807" unicode="&#xe807;" horiz-adv-x="1030" 
d="M871 466h-100l-124 151l-214 -151h-180q-53 0 -90.5 -38t-37.5 -92v-159l-107 297q-6 16 0.5 31t21.5 20l680 248q15 5 29 -2t20 -23zM977 376q16 0 27 -11.5t11 -28.5v-471q0 -17 -11 -28.5t-27 -11.5h-724q-16 0 -27 11.5t-11 28.5v471q0 17 11 28.5t27 11.5h724z
M922 -75v161l-73 161l-167 -60l-129 -133l-139 172l-92 -215v-86h600z" />
    <glyph glyph-name="uniE808" unicode="&#xe808;" horiz-adv-x="1030" 
d="M515 400q62 0 106 -44t44 -106t-44 -106t-106 -44t-106 44t-44 106t44 106t106 44zM915 550q41 0 70.5 -29.5t29.5 -70.5v-450q0 -41 -29.5 -70.5t-70.5 -29.5h-800q-41 0 -70.5 29.5t-29.5 70.5v450q0 41 29.5 70.5t70.5 29.5h120q12 0 23.5 8t15.5 20l32 93
q4 12 15 20.5t24 8.5h340q12 0 23.5 -8.5t15.5 -20.5l32 -93q4 -12 15 -20t24 -8h120zM515 0q103 0 176.5 73t73.5 177t-73.5 177t-176.5 73t-176.5 -73t-73.5 -177t73.5 -177t176.5 -73zM880 380q14 0 24.5 10.5t10.5 24.5t-10.5 24.5t-24.5 10.5t-24.5 -10.5t-10.5 -24.5
t10.5 -24.5t24.5 -10.5z" />
    <glyph glyph-name="uniE809" unicode="&#xe809;" horiz-adv-x="697" 
d="M263 -50q-34 0 -55 28l-179 236q-17 23 -13 51.5t27 45.5t51.5 13.5t45.5 -26.5l118 -155l295 474q15 25 43 31t53 -9t31.5 -43t-8.5 -53l-349 -560q-21 -33 -60 -33z" />
    <glyph glyph-name="uniE80A" unicode="&#xe80a;" horiz-adv-x="500" 
d="M467 142q17 -17 17 -42t-17 -42t-42 -17t-42 17l-133 151l-133 -151q-17 -17 -42 -17t-42 17t-17 42t17 42l137 158l-137 158q-17 17 -17 42t17 42t42 17t42 -17l133 -151l133 151q17 17 42 17t42 -17t17 -42t-17 -42l-137 -158z" />
    <glyph glyph-name="uniE80B" unicode="&#xe80b;" horiz-adv-x="870" 
d="M435 720q174 0 297 -123t123 -297t-123 -297t-297 -123t-297 123t-123 297t123 297t297 123zM521 300l153 153l-86 86l-153 -153l-153 153l-86 -86l153 -153l-153 -153l86 -87l153 154l153 -153l86 86z" />
    <glyph glyph-name="uniE80C" unicode="&#xe80c;" horiz-adv-x="990" 
d="M960 780q37 -106 -8 -199t-129 -158l17 -25q16 -25 7 -53l-49 -157q-8 -26 -34 -46l-465 -330q-41 -28 -64 5l-211 305q-12 17 -8.5 37.5t20.5 32.5l465 329q22 17 54 17l158 1q12 0 26 -7.5t21 -17.5l28 -41q23 18 43 37.5t41 48t30.5 58t13 67.5t-12.5 76q-4 12 1.5 23
t17.5 15t23 -1t15 -17zM743 312q41 29 33 79q-11 -6 -31 -16q-6 -3 -12 -3q-23 0 -28.5 23t15.5 34q7 3 24 14q-45 33 -92 1q-27 -20 -33 -52.5t13 -59.5t51.5 -33t59.5 13z" />
    <glyph glyph-name="uniE80D" unicode="&#xe80d;" horiz-adv-x="1030" 
d="M515 580q92 0 177 -25.5t141.5 -62t99 -77.5t62.5 -71.5t20 -43.5t-20 -43.5t-62.5 -71.5t-99 -77.5t-141.5 -62t-177 -25.5t-177 25.5t-141.5 62t-99 77.5t-62.5 71.5t-20 43.5t20 43.5t62.5 71.5t99 77.5t141.5 62t177 25.5zM515 85q92 0 157 63t65 152t-65 152
t-157 63t-157 -63t-65 -152t65 -152t157 -63zM515 300q6 -6 18 -5t28 4.5t30.5 7t24.5 2t10 -8.5q0 -44 -32.5 -76t-78.5 -32t-78.5 32t-32.5 76t32.5 76t78.5 32q14 0 10 -23t-12 -47t2 -38z" />
    <glyph glyph-name="uniE80E" unicode="&#xe80e;" horiz-adv-x="730" 
d="M655 400q21 0 40.5 -19.5t19.5 -40.5v-390q0 -21 -14 -40t-34 -25l-59 -20q-49 -15 -98 -15h-290q-49 0 -98 15l-59 20q-20 6 -34 25t-14 40v390q0 22 15 41t35 19h400v140q0 53 -27 81.5t-73 28.5t-73 -28.5t-27 -81.5v-40h-100v20q0 110 51 170t149 60t149 -60t51 -170
v-120h90z" />
    </font>
</defs>
</svg>
